<?xml version="1.0" encoding="UTF-8"?>
<svg version="1.1" xmlns="http://www.w3.org/2000/svg" width="900" height="900">
<path d="M0 0 C297 0 594 0 900 0 C900 297 900 594 900 900 C603 900 306 900 0 900 C0 603 0 306 0 0 Z " fill="#FEFEFE" transform="translate(0,0)"/>
<path d="M0 0 C0.33 0.99 0.66 1.98 1 3 C3.01508358 3.73323796 3.01508358 3.73323796 5 4 C5 7 5 7 2.90234375 9.31640625 C1.46568359 10.64478516 1.46568359 10.64478516 0 12 C-0.50644043 12.47163574 -1.01288086 12.94327148 -1.53466797 13.42919922 C-3.71007745 15.44927014 -5.90316028 17.44973406 -8.09570312 19.45117188 C-8.91264648 20.20043945 -8.91264648 20.20043945 -9.74609375 20.96484375 C-10.22747803 21.4043335 -10.7088623 21.84382324 -11.20483398 22.29663086 C-11.79723877 22.85874268 -12.38964355 23.42085449 -13 24 C-14.0113608 24.78709414 -15.0227216 25.57418827 -16.06472969 26.38513374 C-19.65416455 30.01935666 -19.72458403 33.27943652 -19.80066109 38.23477364 C-19.78707495 39.32590399 -19.77348881 40.41703434 -19.75949097 41.54122925 C-19.77330559 43.29041405 -19.77330559 43.29041405 -19.78739929 45.07493591 C-19.80691632 48.30994398 -19.79954825 51.54361151 -19.78093514 54.77858385 C-19.76723305 58.32111928 -19.78842477 61.86347866 -19.80517769 65.40597725 C-19.83247722 72.2808096 -19.82900669 79.15528256 -19.81475628 86.03014065 C-19.79960047 93.98320147 -19.822765 101.93584742 -19.84594727 109.88891602 C-19.88822791 130.884237 -19.87842312 151.87963672 -19.875 172.875 C-19.91625 219.77625 -19.9575 266.6775 -20 315 C-115.04 315 -210.08 315 -308 315 C-308 219.63 -308 124.26 -308 26 C-175.0625 26.0625 -175.0625 26.0625 -133.07055664 26.15258789 C-120.66050245 26.1360935 -120.66050245 26.1360935 -108.25047302 26.10765076 C-102.71810326 26.09529179 -97.1864535 26.10746103 -91.65415955 26.13633728 C-85.27161158 26.16956677 -78.88995919 26.17154946 -72.50741431 26.13518586 C-69.2429617 26.11756405 -65.98052672 26.11882892 -62.71612942 26.15025151 C-59.21539765 26.18177516 -55.71921653 26.15789405 -52.21864319 26.12025452 C-50.70008051 26.15374072 -50.70008051 26.15374072 -49.15083981 26.1879034 C-43.15791427 26.05264502 -40.28876701 24.88553917 -35.99976254 20.60796261 C-34.65644927 19.08076456 -33.32211723 17.54558418 -32 16 C-30.08373208 14.21302814 -28.09778423 12.59317598 -26.0625 10.9375 C-25.14597656 10.18339844 -24.22945312 9.42929688 -23.28515625 8.65234375 C-21 7 -21 7 -19 7 C-19 6.34 -19 5.68 -19 5 C-13.16437367 0.75590812 -7.09404202 -0.28955274 0 0 Z " fill="#FDFDFD" transform="translate(759,135)"/>
<path d="M0 0 C95.04 0 190.08 0 288 0 C288 95.04 288 190.08 288 288 C192.96 288 97.92 288 0 288 C0 192.96 0 97.92 0 0 Z " fill="#FCFDFD" transform="translate(134,479)"/>
<path d="M0 0 C47.334375 -0.020625 94.66875 -0.04125 143.4375 -0.0625 C158.41181396 -0.071604 173.38612793 -0.08070801 188.81420898 -0.09008789 C207.02746582 -0.09460449 207.02746582 -0.09460449 215.53993225 -0.09544373 C221.5157256 -0.09637955 227.4915097 -0.10006156 233.46730042 -0.10557556 C240.35037531 -0.11191741 247.23344126 -0.11484148 254.1165191 -0.11344495 C257.64144894 -0.11283957 261.16635879 -0.11383416 264.69128501 -0.11921513 C268.45557858 -0.12413849 272.21982103 -0.12300865 275.9841156 -0.12025452 C277.09758897 -0.12316718 278.21106234 -0.12607985 279.35827732 -0.12908077 C280.36031885 -0.1270899 281.36236038 -0.12509903 282.39476681 -0.12304783 C283.70195404 -0.12361741 283.70195404 -0.12361741 285.0355491 -0.1241985 C287 0 287 0 288 1 C288.09777332 2.5263879 288.12555502 4.05730639 288.12584114 5.58682251 C288.12975276 7.08326074 288.12975276 7.08326074 288.13374341 8.60993004 C288.13039732 10.27375442 288.13039732 10.27375442 288.12698364 11.97119141 C288.12854363 13.13923624 288.13010362 14.30728107 288.13171089 15.51072121 C288.1350241 18.76739393 288.13381174 22.02402979 288.13072467 25.28070164 C288.1284724 28.7872138 288.13194931 32.29372078 288.13470459 35.80023193 C288.13916314 42.67523303 288.13818544 49.55022325 288.13529195 56.42522478 C288.13303825 62.01014833 288.13272525 67.59506881 288.13381577 73.17999268 C288.133969 73.97332178 288.13412223 74.76665088 288.13428011 75.58402026 C288.13459982 77.19539499 288.13492403 78.80676973 288.1352527 80.41814446 C288.13810774 95.5461814 288.13482009 110.67421229 288.12945233 125.80224824 C288.12498427 138.79720498 288.1257602 151.79215279 288.13037109 164.78710938 C288.13571643 179.85912664 288.13783305 194.93113859 288.13475883 210.00315666 C288.13444026 211.60877355 288.13412589 213.21439044 288.13381577 214.82000732 C288.13366149 215.61010716 288.13350721 216.400207 288.13334826 217.21424925 C288.13248299 222.79576788 288.13394621 228.37728316 288.13629532 233.95880127 C288.13909307 240.75606251 288.13835559 247.5533122 288.13301457 254.35057211 C288.13037722 257.8220162 288.12937307 261.29344098 288.13266373 264.76488495 C288.1353719 268.51954579 288.1319982 272.27415133 288.12698364 276.02880859 C288.12921436 277.13802485 288.13144509 278.2472411 288.13374341 279.39006996 C288.13113566 280.38769545 288.12852791 281.38532093 288.12584114 282.41317749 C288.12567879 283.28105581 288.12551644 284.14893414 288.12534916 285.0431118 C288 287 288 287 287 288 C285.4674343 288.09689341 283.93039225 288.12371695 282.39476681 288.12304783 C281.39272528 288.1250387 280.39068375 288.12702957 279.35827732 288.12908077 C277.68806727 288.12471178 277.68806727 288.12471178 275.9841156 288.12025452 C274.81412521 288.12111053 273.64413483 288.12196655 272.43869019 288.12284851 C269.17003966 288.12422181 265.90142817 288.12106247 262.63278227 288.11607273 C259.06179107 288.11172451 255.49080151 288.11316612 251.91980839 288.11389065 C244.9791886 288.11442362 238.03858169 288.10979359 231.09796521 288.10338932 C223.07446413 288.09620658 215.05097084 288.09539552 207.02746582 288.09460449 C185.8308085 288.08934805 164.63415406 288.07538703 143.4375 288.0625 C72.4359375 288.0315625 72.4359375 288.0315625 0 288 C0 192.96 0 97.92 0 0 Z " fill="#3297CB" transform="translate(451,478)"/>
<path d="M0 0 C94.38 0 188.76 0 286 0 C286 94.38 286 188.76 286 286 C191.62 286 97.24 286 0 286 C0 191.62 0 97.24 0 0 Z " fill="#3297CB" transform="translate(135,162)"/>
<path d="M0 0 C0.33 0.99 0.66 1.98 1 3 C3.01508358 3.73323796 3.01508358 3.73323796 5 4 C5 7 5 7 2.90234375 9.31640625 C1.46568359 10.64478516 1.46568359 10.64478516 0 12 C-0.50644043 12.47163574 -1.01288086 12.94327148 -1.53466797 13.42919922 C-3.71007745 15.44927014 -5.90316028 17.44973406 -8.09570312 19.45117188 C-8.91264648 20.20043945 -8.91264648 20.20043945 -9.74609375 20.96484375 C-10.22747803 21.4043335 -10.7088623 21.84382324 -11.20483398 22.29663086 C-11.79723877 22.85874268 -12.38964355 23.42085449 -13 24 C-14.0113608 24.78709414 -15.0227216 25.57418827 -16.06472969 26.38513374 C-19.65416455 30.01935666 -19.72458403 33.27943652 -19.80066109 38.23477364 C-19.78707495 39.32590399 -19.77348881 40.41703434 -19.75949097 41.54122925 C-19.77330559 43.29041405 -19.77330559 43.29041405 -19.78739929 45.07493591 C-19.80691632 48.30994398 -19.79954825 51.54361151 -19.78093514 54.77858385 C-19.76723305 58.32111928 -19.78842477 61.86347866 -19.80517769 65.40597725 C-19.83247722 72.2808096 -19.82900669 79.15528256 -19.81475628 86.03014065 C-19.79960047 93.98320147 -19.822765 101.93584742 -19.84594727 109.88891602 C-19.88822791 130.884237 -19.87842312 151.87963672 -19.875 172.875 C-19.91625 219.77625 -19.9575 266.6775 -20 315 C-115.04 315 -210.08 315 -308 315 C-308 219.63 -308 124.26 -308 26 C-175.0625 26.0625 -175.0625 26.0625 -133.07055664 26.15258789 C-120.66050245 26.1360935 -120.66050245 26.1360935 -108.25047302 26.10765076 C-102.71810326 26.09529179 -97.1864535 26.10746103 -91.65415955 26.13633728 C-85.27161158 26.16956677 -78.88995919 26.17154946 -72.50741431 26.13518586 C-69.2429617 26.11756405 -65.98052672 26.11882892 -62.71612942 26.15025151 C-59.21539765 26.18177516 -55.71921653 26.15789405 -52.21864319 26.12025452 C-50.70008051 26.15374072 -50.70008051 26.15374072 -49.15083981 26.1879034 C-43.15791427 26.05264502 -40.28876701 24.88553917 -35.99976254 20.60796261 C-34.65644927 19.08076456 -33.32211723 17.54558418 -32 16 C-30.08373208 14.21302814 -28.09778423 12.59317598 -26.0625 10.9375 C-25.14597656 10.18339844 -24.22945312 9.42929688 -23.28515625 8.65234375 C-21 7 -21 7 -19 7 C-19 6.34 -19 5.68 -19 5 C-13.16437367 0.75590812 -7.09404202 -0.28955274 0 0 Z M-299 35 C-299 124.1 -299 213.2 -299 305 C-209.9 305 -120.8 305 -29 305 C-28.979375 263.79125 -28.95875 222.5825 -28.9375 180.125 C-28.92384399 160.60561279 -28.92384399 160.60561279 -28.90991211 140.69189453 C-28.90656772 129.02964796 -28.90656772 129.02964796 -28.90455627 117.36740112 C-28.90362444 112.17200259 -28.89995922 106.9766145 -28.89442444 101.78121948 C-28.88737237 95.15173721 -28.88550985 88.52226683 -28.88692772 81.89278007 C-28.88663128 79.46128562 -28.88465146 77.02979065 -28.88078487 74.59829926 C-28.87579818 71.30933947 -28.87701484 68.020437 -28.87974548 64.73147583 C-28.87683282 63.78425093 -28.87392015 62.83702602 -28.87091923 61.86109734 C-28.88429315 55.85206831 -29.29286683 49.96706122 -30 44 C-35.50031833 47.80765638 -39.85271868 51.88060793 -44.19140625 56.98046875 C-46 59 -46 59 -48.625 60.9375 C-51.8071507 63.70094666 -53.45373692 66.98397208 -55.53515625 70.6171875 C-57.33190495 73.53989872 -59.51869802 75.63973714 -62 78 C-66.63009611 83.31281741 -66.63009611 83.31281741 -69.96484375 89.44140625 C-71.20297796 92.50170024 -72.89305863 94.80114403 -74.875 97.4375 C-78.14770174 101.82607671 -78.14770174 101.82607671 -81.1875 106.375 C-83 109 -83 109 -85.5 111.375 C-88.13123576 114.13779755 -89.32399521 116.54573963 -90.8984375 119.95703125 C-92.06972799 122.12931822 -93.40211441 123.74261924 -95.0625 125.5625 C-97.24004123 127.95725233 -98.17842153 129.4163169 -99.5 132.5 C-101.05578273 136.13015971 -102.79496641 138.24440712 -105.39453125 141.1328125 C-111.42812714 148.14998728 -116.82008243 157.01387716 -119.984375 165.703125 C-121 168 -121 168 -124 170 C-125.33786912 171.93629932 -125.33786912 171.93629932 -126.5 174.1875 C-126.933125 174.991875 -127.36625 175.79625 -127.8125 176.625 C-128.80106307 178.60212614 -129.66708991 180.63992936 -130.5 182.6875 C-131.76989003 185.49184047 -132.70788347 186.96944227 -134.6875 189.1875 C-137.4234036 191.90809567 -137.4234036 191.90809567 -137 196 C-137.66 196 -138.32 196 -139 196 C-142.37863948 201.8754328 -145.52232949 207.35048271 -147 214 C-147.66 214 -148.32 214 -149 214 C-154.15176307 223.49074799 -159.09543846 232.91321603 -163 243 C-163.66 243 -164.32 243 -165 243 C-169.10794764 250.98549121 -169.10794764 250.98549121 -172.75 259.1875 C-174 262 -174 262 -176 263 C-176.09667969 261.83210937 -176.19335938 260.66421875 -176.29296875 259.4609375 C-176.83821579 255.11996894 -178.34043779 251.50243137 -180.3125 247.625 C-180.95143813 246.31879162 -181.58815686 245.01149528 -182.22265625 243.703125 C-182.68309326 242.75856445 -182.68309326 242.75856445 -183.15283203 241.79492188 C-184.30013285 239.36409893 -185.28507692 236.8830491 -186.25 234.375 C-187.5479315 231.01040504 -189.10157549 228.07363968 -191 225 C-191.6875 222.6875 -191.6875 222.6875 -192 221 C-192.66 221 -193.32 221 -194 221 C-194.2475 219.948125 -194.495 218.89625 -194.75 217.8125 C-195.77331094 214.16097321 -197.56250686 211.90926601 -200 209 C-200.36784131 207.6757713 -200.71202981 206.34386088 -201 205 C-201.66 204.67 -202.32 204.34 -203 204 C-203.556875 202.515 -203.556875 202.515 -204.125 201 C-206.23640973 195.76456567 -210.14539352 192.02252993 -214 188 C-214.804375 187.154375 -215.60875 186.30875 -216.4375 185.4375 C-222.4159349 179.75069608 -228.28852096 174.54651196 -235.34765625 170.2265625 C-235.89292969 169.82179688 -236.43820312 169.41703125 -237 169 C-237 168.34 -237 167.68 -237 167 C-232.68763079 166.91210285 -228.3754955 166.8593077 -224.0625 166.8125 C-222.24395508 166.77479492 -222.24395508 166.77479492 -220.38867188 166.73632812 C-209.29525841 166.64613777 -201.28623535 168.42154725 -193 176 C-191.93615165 177.18885053 -190.89506292 178.39837434 -189.875 179.625 C-185.10575254 185.35918822 -179.23774832 189.94214151 -173.51464844 194.68481445 C-172 196 -172 196 -170.49316406 197.66479492 C-168.96112805 199.33328875 -168.96112805 199.33328875 -166 199 C-165.62875 197.906875 -165.2575 196.81375 -164.875 195.6875 C-161.08303953 185.62063014 -154.95338141 176.48015152 -149.3125 167.375 C-148.96140167 166.80696655 -148.61030334 166.23893311 -148.24856567 165.65368652 C-131.37618374 138.35955174 -113.66907869 111.4295377 -93.63671875 86.33203125 C-91.81194038 84.04241888 -90.02813495 81.72754162 -88.26953125 79.38671875 C-87.82504639 78.79737549 -87.38056152 78.20803223 -86.92260742 77.60083008 C-85.70725987 75.9844064 -84.49793887 74.36345647 -83.2890625 72.7421875 C-81.04964812 70.05947607 -78.76437426 68.11710614 -76 66 C-74.34282788 64.36757534 -74.34282788 64.36757534 -72.9375 62.6875 C-72.47214844 62.15511719 -72.00679687 61.62273437 -71.52734375 61.07421875 C-69.83069846 58.86508275 -69.83069846 58.86508275 -68.1640625 55.6640625 C-66.04055349 51.86916591 -63.41580254 48.83461321 -60.4375 45.6875 C-59.95603516 45.16349609 -59.47457031 44.63949219 -58.97851562 44.09960938 C-56.76072989 41.71709127 -54.72149248 39.81432832 -52 38 C-52 37.01 -52 36.02 -52 35 C-133.51 35 -215.02 35 -299 35 Z " fill="#428DB4" transform="translate(759,135)"/>
<path d="M0 0 C95.04 0 190.08 0 288 0 C288 95.04 288 190.08 288 288 C192.96 288 97.92 288 0 288 C0 192.96 0 97.92 0 0 Z M9 8 C9 97.1 9 186.2 9 278 C98.1 278 187.2 278 279 278 C279 188.9 279 99.8 279 8 C189.9 8 100.8 8 9 8 Z " fill="#4F96BA" transform="translate(134,479)"/>
<path d="M0 0 C47.334375 -0.020625 94.66875 -0.04125 143.4375 -0.0625 C158.41181396 -0.071604 173.38612793 -0.08070801 188.81420898 -0.09008789 C207.02746582 -0.09460449 207.02746582 -0.09460449 215.53993225 -0.09544373 C221.5157256 -0.09637955 227.4915097 -0.10006156 233.46730042 -0.10557556 C240.35037531 -0.11191741 247.23344126 -0.11484148 254.1165191 -0.11344495 C257.64144894 -0.11283957 261.16635879 -0.11383416 264.69128501 -0.11921513 C268.45557858 -0.12413849 272.21982103 -0.12300865 275.9841156 -0.12025452 C277.09758897 -0.12316718 278.21106234 -0.12607985 279.35827732 -0.12908077 C280.36031885 -0.1270899 281.36236038 -0.12509903 282.39476681 -0.12304783 C283.70195404 -0.12361741 283.70195404 -0.12361741 285.0355491 -0.1241985 C287 0 287 0 288 1 C288.09777332 2.5263879 288.12555502 4.05730639 288.12584114 5.58682251 C288.12975276 7.08326074 288.12975276 7.08326074 288.13374341 8.60993004 C288.13039732 10.27375442 288.13039732 10.27375442 288.12698364 11.97119141 C288.12854363 13.13923624 288.13010362 14.30728107 288.13171089 15.51072121 C288.1350241 18.76739393 288.13381174 22.02402979 288.13072467 25.28070164 C288.1284724 28.7872138 288.13194931 32.29372078 288.13470459 35.80023193 C288.13916314 42.67523303 288.13818544 49.55022325 288.13529195 56.42522478 C288.13303825 62.01014833 288.13272525 67.59506881 288.13381577 73.17999268 C288.133969 73.97332178 288.13412223 74.76665088 288.13428011 75.58402026 C288.13459982 77.19539499 288.13492403 78.80676973 288.1352527 80.41814446 C288.13810774 95.5461814 288.13482009 110.67421229 288.12945233 125.80224824 C288.12498427 138.79720498 288.1257602 151.79215279 288.13037109 164.78710938 C288.13571643 179.85912664 288.13783305 194.93113859 288.13475883 210.00315666 C288.13444026 211.60877355 288.13412589 213.21439044 288.13381577 214.82000732 C288.13366149 215.61010716 288.13350721 216.400207 288.13334826 217.21424925 C288.13248299 222.79576788 288.13394621 228.37728316 288.13629532 233.95880127 C288.13909307 240.75606251 288.13835559 247.5533122 288.13301457 254.35057211 C288.13037722 257.8220162 288.12937307 261.29344098 288.13266373 264.76488495 C288.1353719 268.51954579 288.1319982 272.27415133 288.12698364 276.02880859 C288.12921436 277.13802485 288.13144509 278.2472411 288.13374341 279.39006996 C288.13113566 280.38769545 288.12852791 281.38532093 288.12584114 282.41317749 C288.12567879 283.28105581 288.12551644 284.14893414 288.12534916 285.0431118 C288 287 288 287 287 288 C285.4674343 288.09689341 283.93039225 288.12371695 282.39476681 288.12304783 C281.39272528 288.1250387 280.39068375 288.12702957 279.35827732 288.12908077 C277.68806727 288.12471178 277.68806727 288.12471178 275.9841156 288.12025452 C274.81412521 288.12111053 273.64413483 288.12196655 272.43869019 288.12284851 C269.17003966 288.12422181 265.90142817 288.12106247 262.63278227 288.11607273 C259.06179107 288.11172451 255.49080151 288.11316612 251.91980839 288.11389065 C244.9791886 288.11442362 238.03858169 288.10979359 231.09796521 288.10338932 C223.07446413 288.09620658 215.05097084 288.09539552 207.02746582 288.09460449 C185.8308085 288.08934805 164.63415406 288.07538703 143.4375 288.0625 C72.4359375 288.0315625 72.4359375 288.0315625 0 288 C0 192.96 0 97.92 0 0 Z M8 9 C7.90333235 10.44914375 7.87628195 11.90299105 7.87695217 13.35535526 C7.8749613 14.30164484 7.87297043 15.24793442 7.87091923 16.22289944 C7.87383189 17.27413526 7.87674456 18.32537107 7.87974548 19.40846252 C7.87888947 20.51327469 7.87803345 21.61808685 7.87715149 22.75637817 C7.87548532 26.50109427 7.88103764 30.24576645 7.88647461 33.99047852 C7.88733567 36.70393621 7.88669239 39.41739307 7.88610935 42.13085079 C7.8855764 48.68434255 7.89020625 55.23782066 7.89661068 61.79130891 C7.90379365 69.3673437 7.90460449 76.94337023 7.90539551 84.51940918 C7.91065187 104.53377496 7.92461289 124.54813768 7.9375 144.5625 C7.958125 189.256875 7.97875 233.95125 8 280 C97.76 280 187.52 280 280 280 C280.020625 235.49125 280.04125 190.9825 280.0625 145.125 C280.07615601 124.00846436 280.07615601 124.00846436 280.09008789 102.46533203 C280.09343137 89.89683545 280.09343137 89.89683545 280.09544373 77.32833862 C280.09637912 71.71008896 280.10005933 66.09184916 280.10557556 60.47360229 C280.11192127 54.00101393 280.11484056 47.52843508 280.11344495 41.05584358 C280.11284006 37.74173911 280.11437847 34.42767304 280.11921513 31.1135695 C280.12414524 27.57261301 280.12300609 24.03171075 280.12025452 20.49075317 C280.12316718 19.44631987 280.12607985 18.40188656 280.12908077 17.32580376 C280.1270899 16.3810078 280.12509903 15.43621185 280.12304783 14.46278572 C280.12342755 13.64334925 280.12380727 12.82391278 280.1241985 11.97964489 C280.12450902 9.92374152 280.12450902 9.92374152 279 8 C244.62061886 7.97713467 210.24123945 7.95950231 175.86185235 7.94893467 C171.807397 7.94768389 167.75294166 7.94638958 163.69848633 7.94506836 C162.48768081 7.94467489 162.48768081 7.94467489 161.25241458 7.94427348 C148.16483827 7.93991657 135.07726634 7.93202891 121.98969264 7.9228472 C108.57079083 7.91351123 95.15189131 7.90794451 81.73298639 7.90591151 C73.44603469 7.90453616 65.15909534 7.90018495 56.87214743 7.89208353 C51.19731615 7.88681677 45.5224913 7.88519554 39.84765775 7.88649862 C36.56861768 7.88714211 33.28960398 7.88558482 30.01056671 7.88079453 C26.46385969 7.87586463 22.91720677 7.8769991 19.37049866 7.87974548 C17.79903386 7.87537622 17.79903386 7.87537622 16.1958223 7.87091869 C15.25331444 7.87290974 14.31080659 7.87490079 13.33973789 7.87695217 C12.5199217 7.87657245 11.70010551 7.87619273 10.8554464 7.8758015 C8.9839798 7.79658625 8.9839798 7.79658625 8 9 Z " fill="#2B81AC" transform="translate(451,478)"/>
<path d="M0 0 C94.38 0 188.76 0 286 0 C286 94.38 286 188.76 286 286 C191.62 286 97.24 286 0 286 C0 191.62 0 97.24 0 0 Z M8 8 C8 97.1 8 186.2 8 278 C97.1 278 186.2 278 278 278 C278 188.9 278 99.8 278 8 C188.9 8 99.8 8 8 8 Z " fill="#1678A9" transform="translate(135,162)"/>
<path d="M0 0 C0.33 0.99 0.66 1.98 1 3 C3.01508358 3.73323796 3.01508358 3.73323796 5 4 C5 4.99 5 5.98 5 7 C3.11840658 8.5993544 1.25988529 10.01661177 -0.75 11.4375 C-5.76072313 15.12737871 -10.3524884 19.03257384 -14.75 23.4375 C-15.26272461 23.94531006 -15.77544922 24.45312012 -16.30371094 24.97631836 C-18.59185278 27.3070212 -19.95270139 28.85810418 -21 32 C-22.65532623 33.01866229 -24.32260138 34.01810813 -26 35 C-26.66 35.99 -27.32 36.98 -28 38 C-28.66 38 -29.32 38 -30 38 C-30.3403125 38.82177734 -30.3403125 38.82177734 -30.6875 39.66015625 C-32.98174407 43.75019255 -36.46185545 46.87510765 -39.6875 50.24609375 C-41.88257494 52.86016103 -42.82009089 54.8571512 -44 58 C-45.4434837 59.14822567 -46.88892897 60.29423811 -48.3515625 61.41796875 C-51.10462029 64.06012137 -52.75104355 67.34436207 -54.62890625 70.63671875 C-57.42178815 75.45066049 -61.09070359 79.09070359 -65 83 C-66.76579358 85.09279239 -67.89599452 86.71783699 -68.84375 89.2890625 C-70.1516303 92.35551158 -71.81483677 94.70890261 -73.8125 97.375 C-76.15009437 100.5142964 -78.46775811 103.65142579 -80.6875 106.875 C-83 110 -83 110 -85.625 112.5 C-88.19589117 114.91451273 -88.19589117 114.91451273 -89.4375 118.375 C-90.80389893 121.54504552 -91.75877063 123.04400909 -94 125.5 C-96.19886224 127.91443697 -97.16926827 129.39495929 -98.5 132.5 C-100.05578273 136.13015971 -101.79496641 138.24440712 -104.39453125 141.1328125 C-110.84235485 148.63174116 -115.51178637 157.74391918 -119.75 166.625 C-121 169 -121 169 -123 170 C-125.60776598 174.01062358 -127.6999179 178.26229818 -129.5 182.6875 C-130.75324569 185.45508423 -131.69060659 186.97676468 -133.625 189.1875 C-135.73471006 191.68584086 -136.63532174 192.83945508 -137 196 C-137.66 196 -138.32 196 -139 196 C-139.41572266 197.06154297 -139.41572266 197.06154297 -139.83984375 198.14453125 C-141.0114747 201.02824243 -142.26872858 203.85665089 -143.5625 206.6875 C-143.99691406 207.64011719 -144.43132812 208.59273437 -144.87890625 209.57421875 C-145.56521673 211.05923202 -146.26838719 212.53677439 -147 214 C-147.66 214 -148.32 214 -149 214 C-149.226875 214.804375 -149.45375 215.60875 -149.6875 216.4375 C-151.04021133 220.10914504 -152.76356969 223.24609361 -154.703125 226.62890625 C-155.97889347 228.96141066 -157.06977606 231.31080927 -158.125 233.75 C-159.53514216 236.99673861 -160.94147683 240.09935372 -163 243 C-163.66 243 -164.32 243 -165 243 C-165.18175781 243.60328125 -165.36351562 244.2065625 -165.55078125 244.828125 C-166.90771744 249.14248622 -168.15675915 252.44594893 -171 256 C-172.10014948 258.30076924 -173.04420015 260.63325752 -174 263 C-174.66 263 -175.32 263 -176 263 C-176.350625 261.865625 -176.70125 260.73125 -177.0625 259.5625 C-180.76826188 248.48017438 -185.38114214 237.696528 -190.93359375 227.41796875 C-192 225 -192 225 -192 221 C-192.66 221 -193.32 221 -194 221 C-194.25394531 220.46890625 -194.50789062 219.9378125 -194.76953125 219.390625 C-196.95561474 214.88695987 -196.95561474 214.88695987 -199.75 210.75 C-201 209 -201 209 -201 205 C-201.99 204.67 -202.98 204.34 -204 204 C-204.64572808 202.36868695 -205.28988201 200.73673197 -205.92578125 199.1015625 C-212.28885302 186.65308027 -226.76472772 176.73985424 -238 169 C-237.67 168.01 -237.34 167.02 -237 166 C-232.68763079 165.91210285 -228.3754955 165.8593077 -224.0625 165.8125 C-222.24395508 165.77479492 -222.24395508 165.77479492 -220.38867188 165.73632812 C-208.4753741 165.63947205 -200.80241532 167.86591621 -192 176 C-190.26273284 177.92116707 -188.6085102 179.8948417 -186.953125 181.88671875 C-183.83949339 185.25566815 -180.25256139 187.99978355 -176.6484375 190.82421875 C-174 193 -174 193 -171.3515625 195.70703125 C-169.14196616 198.19484191 -169.14196616 198.19484191 -166 199 C-165.95230469 198.05253906 -165.90460938 197.10507812 -165.85546875 196.12890625 C-165.07055289 190.73716922 -162.12543556 186.50587655 -159.3125 181.9375 C-158.7359668 180.98230469 -158.15943359 180.02710938 -157.56542969 179.04296875 C-151.70840692 169.39387895 -145.64852791 159.87146313 -139.53369141 150.38427734 C-138.20570362 148.31978693 -136.88680447 146.25008055 -135.57421875 144.17578125 C-122.91345341 124.24722739 -109.36724985 104.78848838 -94.63671875 86.33203125 C-92.81194038 84.04241888 -91.02813495 81.72754162 -89.26953125 79.38671875 C-88.82504639 78.79737549 -88.38056152 78.20803223 -87.92260742 77.60083008 C-86.70725987 75.9844064 -85.49793887 74.36345647 -84.2890625 72.7421875 C-82.04964812 70.05947607 -79.76437426 68.11710614 -77 66 C-75.34282788 64.36757534 -75.34282788 64.36757534 -73.9375 62.6875 C-73.47214844 62.15511719 -73.00679687 61.62273437 -72.52734375 61.07421875 C-70.83196688 58.86703126 -70.83196688 58.86703126 -69.171875 55.67578125 C-67.00906244 51.81650459 -64.33859816 48.70769311 -61.3125 45.5 C-60.78648193 44.93539062 -60.26046387 44.37078125 -59.71850586 43.7890625 C-56.09891785 39.97561702 -52.33346577 36.61024163 -48.03515625 33.5625 C-45.45346274 31.58039366 -43.26925388 29.33180605 -41 27 C-35.9508037 21.87774459 -30.94601969 16.83391768 -25.3984375 12.25 C-23.65497817 10.6916006 -22.37521832 8.88187771 -21 7 C-20.34 7 -19.68 7 -19 7 C-19 6.34 -19 5.68 -19 5 C-13.16437367 0.75590812 -7.09404202 -0.28955274 0 0 Z " fill="#474747" transform="translate(759,135)"/>
<path d="M0 0 C94.05 0 188.1 0 285 0 C285 93.72 285 187.44 285 284 C193.92 284 102.84 284 9 284 C8.67 283.34 8.34 282.68 8 282 C40.70623624 281.97713039 73.4124704 281.95950012 106.11871281 281.94893467 C109.97660282 281.94768391 113.83449282 281.94638959 117.69238281 281.94506836 C118.46044619 281.94480605 119.22850956 281.94454374 120.01984759 281.94427348 C132.46979559 281.9399176 144.91973899 281.93203049 157.36968426 281.9228472 C170.13657373 281.9135084 182.90346079 281.90794391 195.67035353 281.90591151 C203.55347314 281.90453675 211.43657976 281.90018871 219.31969537 281.89208353 C225.35600415 281.88619188 231.39230167 281.88554162 237.42861366 281.88689232 C239.91111265 281.88661598 242.3936121 281.88461075 244.87610817 281.88079453 C248.251683 281.8758576 251.6272011 281.87700174 255.0027771 281.87974548 C256.49399914 281.87537622 256.49399914 281.87537622 258.01534688 281.87091869 C259.36416902 281.87390526 259.36416902 281.87390526 260.7402401 281.87695217 C261.52018566 281.87657245 262.30013121 281.87619273 263.10371149 281.8758015 C265 282 265 282 267 283 C267.33 282.01 267.66 281.02 268 280 C271.3 279.67 274.6 279.34 278 279 C278 188.91 278 98.82 278 6 C188.57 6 99.14 6 7 6 C6.34 96.75 5.68 187.5 5 281 C4.67 281 4.34 281 4 281 C4 188.93 4 96.86 4 2 C3.34 2 2.68 2 2 2 C2 95.06 2 188.12 2 284 C1.34 284 0.68 284 0 284 C0 190.28 0 96.56 0 0 Z " fill="#0A6A9B" transform="translate(135,480)"/>
<path d="M0 0 C9.38402975 2.08533994 9.38402975 2.08533994 14.60546875 4.9140625 C19.80601925 7.27255033 25.49220761 8.54569527 31 10 C31 10.66 31 11.32 31 12 C31.66 12.0825 32.32 12.165 33 12.25 C35.61005616 12.90251404 37.40110726 13.6441802 39.75 14.875 C44.01658946 17.10600288 48.40434855 18.59577317 53 20 C53 20.66 53 21.32 53 22 C54.051875 22.103125 55.10375 22.20625 56.1875 22.3125 C60 23 60 23 62.34765625 24.41796875 C65.27070574 26.1614666 67.98513848 27.05366333 71.25 28 C76.54082868 29.56497777 81.77490228 31.22878043 87 33 C87 33.99 87 34.98 87 36 C88.175625 36.185625 88.175625 36.185625 89.375 36.375 C92 37 92 37 94 39 C94.1953125 42.2578125 94.1953125 42.2578125 94.125 46.125 C94.10695313 47.40632812 94.08890625 48.68765625 94.0703125 50.0078125 C94.04710937 50.99523437 94.02390625 51.98265625 94 53 C92.515 53.495 92.515 53.495 91 54 C91 54.66 91 55.32 91 56 C89.10454608 56.48066535 87.20861961 56.95946743 85.3125 57.4375 C84.25675781 57.70433594 83.20101562 57.97117187 82.11328125 58.24609375 C79.4171683 58.89897932 76.7242424 59.47941193 74 60 C74 60.66 74 61.32 74 62 C71.62556446 62.89735161 69.2504774 63.79291337 66.875 64.6875 C66.15376953 64.96005615 65.43253906 65.2326123 64.68945312 65.51342773 C61.17507034 66.83517139 57.6582278 68.13205852 54.1015625 69.3359375 C48.12375526 71.37176339 42.76252347 73.32167392 37.6484375 77.08203125 C36 78 36 78 32 78 C32 78.66 32 79.32 32 80 C31.04287109 80.18175781 31.04287109 80.18175781 30.06640625 80.3671875 C29.24011719 80.53476562 28.41382813 80.70234375 27.5625 80.875 C26.73878906 81.03742188 25.91507812 81.19984375 25.06640625 81.3671875 C24.04353516 81.68042969 24.04353516 81.68042969 23 82 C22.67 82.66 22.34 83.32 22 84 C20.07347878 84.76396531 18.142526 85.51928103 16.1875 86.20703125 C14.21466407 86.92218427 12.28986238 87.76661342 10.375 88.625 C7 90 7 90 1 91 C1 83.41 1 75.82 1 68 C2.77375 67.2575 4.5475 66.515 6.375 65.75 C8.01855469 65.06164062 8.01855469 65.06164062 9.6953125 64.359375 C12.5320656 63.19248365 15.38312045 62.08959285 18.25 61 C22.14572161 59.46156217 25.44625569 57.52327403 28.93359375 55.2265625 C32.010545 53.400168 35.26198969 52.17796236 38.6015625 50.9140625 C40.75280763 50.09420686 42.84006479 49.19694332 44.9375 48.25 C48 47 48 47 51 47 C48.50689975 44.07442318 45.9211619 42.95988938 42.375 41.5625 C37.19584968 39.48327907 32.08509563 37.29856595 27 35 C27 34.34 27 33.68 27 33 C25.700625 32.79375 24.40125 32.5875 23.0625 32.375 C15.09882425 30.812143 7.60421836 27.77614321 0 25 C0 16.75 0 8.5 0 0 Z " fill="#464646" transform="translate(314,578)"/>
<path d="M0 0 C0 7.26 0 14.52 0 22 C-2.31 22.99 -4.62 23.98 -7 25 C-7.69609375 25.31324219 -8.3921875 25.62648438 -9.109375 25.94921875 C-11.929189 27.21813505 -13.87404987 28 -17 28 C-17 28.66 -17 29.32 -17 30 C-20.3 30.33 -23.6 30.66 -27 31 C-27 31.66 -27 32.32 -27 33 C-27.99 33 -28.98 33 -30 33 C-30 33.99 -30 34.98 -30 36 C-33.08809695 37.76462683 -34.23312136 38 -38 38 C-38 38.66 -38 39.32 -38 40 C-39.24663331 40.50833591 -40.49749387 41.00631145 -41.75 41.5 C-42.44609375 41.7784375 -43.1421875 42.056875 -43.859375 42.34375 C-46 43 -46 43 -50 43 C-50 43.66 -50 44.32 -50 45 C-49.2575 44.95875 -48.515 44.9175 -47.75 44.875 C-44.88051956 45.00543093 -43.39424853 45.46084023 -41 47 C-40.67 47.66 -40.34 48.32 -40 49 C-38.19162745 49.79048135 -38.19162745 49.79048135 -36 50.40234375 C-35.195625 50.65306641 -34.39125 50.90378906 -33.5625 51.16210938 C-31.85524577 51.67870993 -30.14690627 52.19173754 -28.4375 52.70117188 C-27.633125 52.95318359 -26.82875 53.20519531 -26 53.46484375 C-25.2575 53.687771 -24.515 53.91069824 -23.75 54.14038086 C-23.1725 54.42405518 -22.595 54.70772949 -22 55 C-21.67 55.99 -21.34 56.98 -21 58 C-19.05909251 58.69787865 -19.05909251 58.69787865 -16.75 59 C-12.90893245 59.72438516 -10.29076393 60.83749799 -7 63 C-4.80869466 63.69579454 -4.80869466 63.69579454 -3 64 C-3 64.66 -3 65.32 -3 66 C-2.01 66 -1.02 66 0 66 C0 73.59 0 81.18 0 89 C-3.88379637 88.22324073 -7.161134 87.23281529 -10.82324219 85.81591797 C-13.03409958 84.9872184 -15.25771043 84.24995702 -17.5078125 83.53515625 C-18.26707031 83.29216797 -19.02632813 83.04917969 -19.80859375 82.79882812 C-21.35884323 82.30604224 -22.91096218 81.81910103 -24.46484375 81.33789062 C-29.21547233 79.80425499 -32.87353553 77.8824568 -37 75 C-40.23038842 74.20929452 -40.23038842 74.20929452 -43 74 C-43 73.34 -43 72.68 -43 72 C-44.175625 71.7834375 -44.175625 71.7834375 -45.375 71.5625 C-48 71 -48 71 -50 70 C-50 69.34 -50 68.68 -50 68 C-50.66 68.0825 -51.32 68.165 -52 68.25 C-55.60440813 67.94963266 -57.82204384 66.6877531 -60.97265625 65.00390625 C-63.15138288 63.84806503 -63.15138288 63.84806503 -66.3125 63.0625 C-70.44098866 61.87293547 -74.11886145 60.18698848 -78.00390625 58.37109375 C-82.17419381 56.46265707 -86.41551308 54.7412569 -90.6640625 53.015625 C-93 52 -93 52 -94 51 C-94.17840434 48.7129148 -94.26794131 46.41860008 -94.3125 44.125 C-94.34988281 42.86945312 -94.38726562 41.61390625 -94.42578125 40.3203125 C-94 37 -94 37 -92.19140625 35.12890625 C-87.23662937 32.57644543 -82.5346048 31.73001928 -77 32 C-77 31.34 -77 30.68 -77 30 C-73.04 29.505 -73.04 29.505 -69 29 C-69 28.34 -69 27.68 -69 27 C-66.09451118 24.95830515 -64.59857954 24 -61 24 C-61 23.01 -61 22.02 -61 21 C-57.57485361 19.50572608 -54.50782595 18.68421294 -50.8125 18.1875 C-45.718577 17.32935933 -41.74972031 15.60791234 -37.22265625 13.17578125 C-33.03307286 10.959499 -29.72931055 10 -25 10 C-25 9.34 -25 8.68 -25 8 C-23.23050388 7.49528803 -21.45934777 6.99639315 -19.6875 6.5 C-18.20830078 6.08234375 -18.20830078 6.08234375 -16.69921875 5.65625 C-14 5 -14 5 -11 5 C-11 4.34 -11 3.68 -11 3 C-9.73160474 2.49384702 -8.46016898 1.99530901 -7.1875 1.5 C-6.47980469 1.2215625 -5.77210938 0.943125 -5.04296875 0.65625 C-3 0 -3 0 0 0 Z " fill="#484848" transform="translate(241,579)"/>
<path d="M0 0 C92.73 0 185.46 0 281 0 C281.33 90.75 281.66 181.5 282 275 C281.34 275.33 280.68 275.66 280 276 C279.15377797 273.05388139 278.87146176 270.43043987 278.8613348 267.36920547 C278.85585943 266.43785027 278.85038406 265.50649506 278.84474277 264.54691696 C278.84376559 263.52775822 278.84278841 262.50859947 278.84178162 261.45855713 C278.83685196 260.37561874 278.8319223 259.29268036 278.82684326 258.17692566 C278.81142607 254.52452762 278.8030952 250.87214698 278.79467773 247.21972656 C278.78496517 244.56597515 278.77486363 241.91222786 278.76427555 239.25848007 C278.73960899 232.86067778 278.72001661 226.46286995 278.70219031 220.06504534 C278.68135467 212.66557943 278.65421924 205.26614547 278.6270752 197.86669922 C278.55851622 178.32781757 278.49853484 158.7889066 278.4375 139.25 C278.293125 95.6075 278.14875 51.965 278 7 C187.91 7 97.82 7 5 7 C5.11886058 96.75466547 5.11886058 96.75466547 5.27026367 186.50927734 C5.28381348 203.8293457 5.28381348 203.8293457 5.28633118 211.9256897 C5.28913741 217.6064727 5.30017811 223.28716796 5.31672668 228.96792603 C5.33576362 235.51250708 5.34452177 242.0570035 5.34033485 248.60161249 C5.33852009 251.95268656 5.34313527 255.30341878 5.35764539 258.65448451 C5.37243588 262.23493238 5.36901879 265.81489766 5.36076355 269.39535522 C5.36950154 270.45145807 5.37823954 271.50756092 5.38724232 272.59566689 C5.3782834 274.02854105 5.3782834 274.02854105 5.36914349 275.49036217 C5.37028265 276.31891193 5.37142181 277.14746169 5.37259549 278.00111902 C5.24963898 278.66074974 5.12668247 279.32038047 5 280 C4.01 280.66 3.02 281.32 2 282 C7.28 282 12.56 282 18 282 C17.67 282.66 17.34 283.32 17 284 C11.39 284 5.78 284 0 284 C0 190.28 0 96.56 0 0 Z " fill="#0B70A3" transform="translate(453,480)"/>
<path d="M0 0 C0.66 0 1.32 0 2 0 C2.33 92.73 2.66 185.46 3 281 C3.33 189.92 3.66 98.84 4 5 C4.33 5 4.66 5 5 5 C5.73337201 8.291108 6.1268957 11.33903346 6.13587189 14.70864105 C6.1431585 16.09314823 6.1431585 16.09314823 6.15059233 17.50562525 C6.15088831 18.51096984 6.1511843 19.51631444 6.15148926 20.55212402 C6.15572167 21.62684259 6.15995408 22.70156116 6.16431475 23.80884695 C6.17734866 27.41618582 6.18336731 31.02350259 6.18945312 34.63085938 C6.19739487 37.21458573 6.20578277 39.79831074 6.21458435 42.3820343 C6.23291997 47.94880133 6.24777114 53.51556883 6.26036072 59.08235168 C6.27866669 67.13641732 6.30333112 75.19045405 6.32973462 83.24449676 C6.37251574 96.31907575 6.41163293 109.39366271 6.44775391 122.46826172 C6.44991671 123.25065434 6.45207951 124.03304697 6.45430785 124.83914846 C6.47182933 131.18744336 6.48917371 137.53573875 6.50651073 143.88403416 C6.52167306 149.43326909 6.5369061 154.98250383 6.55224609 160.53173828 C6.55440496 161.31317748 6.55656383 162.09461669 6.55878812 162.89973587 C6.59489398 175.92558275 6.63484642 188.95141511 6.67754889 201.97724199 C6.70370159 210.01191746 6.72636156 218.04658851 6.74453247 226.08128607 C6.75869404 232.23498848 6.77782143 238.38866607 6.79878426 244.54234886 C6.80654976 247.06873802 6.81261519 249.59513304 6.81687737 252.12153053 C6.82291232 255.56367719 6.83495511 259.00575194 6.84851074 262.44787598 C6.84880673 263.45322057 6.84910272 264.45856517 6.84940767 265.49437475 C6.85669429 266.87888193 6.85669429 266.87888193 6.86412811 268.29135895 C6.86624408 269.08568156 6.86836005 269.88000417 6.87054014 270.69839716 C6.97237676 273.47174963 6.97237676 273.47174963 8 278 C142.145 278.495 142.145 278.495 279 279 C278.96038335 191.9232147 278.96038335 191.9232147 278.90991211 104.84643555 C278.90539551 88.03869629 278.90539551 88.03869629 278.90455627 80.18049622 C278.90362131 74.66979041 278.89994289 69.15909467 278.89442444 63.64839172 C278.88807487 57.29838631 278.88516035 50.9483906 278.88655505 44.59838198 C278.88715945 41.34764761 278.88562602 38.09693942 278.88078487 34.84620798 C278.875848 31.37118344 278.87699645 27.89621403 278.87974548 24.42118835 C278.87683282 23.39911695 278.87392015 22.37704554 278.87091923 21.32400227 C278.8729101 20.39463793 278.87490097 19.46527359 278.87695217 18.5077467 C278.87657245 17.70387876 278.87619273 16.90001082 278.8758015 16.07178324 C279 14 279 14 280 11 C280.66 11 281.32 11 282 11 C282 101.09 282 191.18 282 284 C188.94 284 95.88 284 0 284 C0 190.28 0 96.56 0 0 Z " fill="#0A6DA0" transform="translate(135,163)"/>
<path d="M0 0 C86.79 0 173.58 0 263 0 C259.625 5.625 259.625 5.625 256 8 C256 7.01 256 6.02 256 5 C173.17 5.33 90.34 5.66 5 6 C5.01160156 25.39523438 5.02320313 44.79046875 5.03515625 64.7734375 C5.0402627 77.02343759 5.0451238 89.27343703 5.04882812 101.5234375 C5.05078611 107.95540367 5.05280663 114.38736982 5.05493164 120.81933594 C5.05519539 121.62552195 5.05545914 122.43170796 5.05573088 123.26232386 C5.06008485 136.29200129 5.06797123 149.32167433 5.0771528 162.35134916 C5.08649136 175.71488519 5.09205604 189.07841891 5.09408849 202.44195807 C5.0954633 210.69359101 5.09981161 218.94521154 5.10791647 227.19684066 C5.11318642 232.84878553 5.11480372 238.50072394 5.11350138 244.15267108 C5.11285839 247.41765823 5.11441092 250.6826189 5.11920547 253.94760323 C5.1241418 257.48082341 5.12299849 261.01398939 5.12025452 264.54721069 C5.12316736 265.5880501 5.1260802 266.62888951 5.12908131 267.70126951 C5.12709026 268.64228501 5.12509921 269.58330052 5.12304783 270.55283165 C5.12342755 271.36923036 5.12380727 272.18562907 5.1241985 273.02676713 C5 275 5 275 4 277 C3.63858045 279.32914823 3.30300475 281.66253478 3 284 C2.01 284 1.02 284 0 284 C0 190.28 0 96.56 0 0 Z " fill="#06699F" transform="translate(453,163)"/>
<path d="M0 0 C0.91644287 0.00523682 1.83288574 0.01047363 2.77709961 0.01586914 C4.26113281 0.02070312 4.26113281 0.02070312 5.77514648 0.02563477 C6.81606445 0.03401367 7.85698242 0.04239258 8.92944336 0.05102539 C10.49662109 0.05779297 10.49662109 0.05779297 12.09545898 0.06469727 C14.68600996 0.07652627 17.27644895 0.0930085 19.86694336 0.11352539 C19.86694336 1.43352539 19.86694336 2.75352539 19.86694336 4.11352539 C19.20694336 4.11352539 18.54694336 4.11352539 17.86694336 4.11352539 C17.81795898 4.69360352 17.76897461 5.27368164 17.71850586 5.87133789 C17.27044931 10.55275631 16.56892236 14.68837998 14.86694336 19.11352539 C14.20694336 19.11352539 13.54694336 19.11352539 12.86694336 19.11352539 C12.81086914 19.96624023 12.81086914 19.96624023 12.75366211 20.83618164 C12.29386736 26.23651609 11.21180662 30.23620981 8.86694336 35.11352539 C6.93857673 39.69339613 5.40955754 44.393126 3.86694336 49.11352539 C3.20694336 49.11352539 2.54694336 49.11352539 1.86694336 49.11352539 C1.75737305 49.68200195 1.64780273 50.25047852 1.53491211 50.83618164 C1.29708008 51.9944043 1.29708008 51.9944043 1.05444336 53.17602539 C0.90362305 53.93012695 0.75280273 54.68422852 0.59741211 55.46118164 C-0.13305664 58.11352539 -0.13305664 58.11352539 -1.60961914 61.44946289 C-3.17523248 65.21496369 -3.97636119 68.66907932 -4.69555664 72.67602539 C-5.53658516 77.31831278 -6.53779247 81.67006425 -8.13305664 86.11352539 C-8.79305664 86.11352539 -9.45305664 86.11352539 -10.13305664 86.11352539 C-10.24520508 86.78770508 -10.35735352 87.46188477 -10.47290039 88.15649414 C-11.26226165 91.69227211 -12.44805513 95.03296105 -13.69555664 98.42602539 C-13.92952148 99.07120117 -14.16348633 99.71637695 -14.40454102 100.38110352 C-14.97752671 101.95973758 -15.55485128 103.53679565 -16.13305664 105.11352539 C-16.79305664 105.11352539 -17.45305664 105.11352539 -18.13305664 105.11352539 C-18.46305664 108.41352539 -18.79305664 111.71352539 -19.13305664 115.11352539 C-27.05305664 115.11352539 -34.97305664 115.11352539 -43.13305664 115.11352539 C-43.13305664 113.79352539 -43.13305664 112.47352539 -43.13305664 111.11352539 C-42.47305664 111.11352539 -41.81305664 111.11352539 -41.13305664 111.11352539 C-41.13305664 109.79352539 -41.13305664 108.47352539 -41.13305664 107.11352539 C-40.47305664 107.11352539 -39.81305664 107.11352539 -39.13305664 107.11352539 C-39.19493164 106.24727539 -39.25680664 105.38102539 -39.32055664 104.48852539 C-39.10257774 100.56490519 -37.89514598 98.61726219 -36.13305664 95.11352539 C-34.99599383 92.16535147 -33.99893041 89.17603267 -33.00805664 86.17602539 C-32.61166992 85.01683594 -32.61166992 85.01683594 -32.20727539 83.83422852 C-30.68024645 79.249266 -29.81243177 74.90945321 -29.13305664 70.11352539 C-28.11743164 67.48071289 -28.11743164 67.48071289 -26.88305664 64.98852539 C-24.39590886 59.76911962 -22.28605708 54.46708357 -20.24633789 49.05883789 C-19.53411462 47.17457002 -18.79674939 45.29949546 -18.02758789 43.43774414 C-16.97070168 40.69168608 -16.53869975 38.02063432 -16.13305664 35.11352539 C-15.47305664 35.11352539 -14.81305664 35.11352539 -14.13305664 35.11352539 C-13.98868164 34.20602539 -13.84430664 33.29852539 -13.69555664 32.36352539 C-13.26896191 29.89875583 -12.78231443 27.52505432 -12.13305664 25.11352539 C-11.47305664 25.11352539 -10.81305664 25.11352539 -10.13305664 25.11352539 C-9.80305664 22.14352539 -9.47305664 19.17352539 -9.13305664 16.11352539 C-8.47305664 16.11352539 -7.81305664 16.11352539 -7.13305664 16.11352539 C-6.80305664 14.13352539 -6.47305664 12.15352539 -6.13305664 10.11352539 C-5.47305664 10.11352539 -4.81305664 10.11352539 -4.13305664 10.11352539 C-4.04217773 9.15639648 -4.04217773 9.15639648 -3.94946289 8.17993164 C-3.86567383 7.35364258 -3.78188477 6.52735352 -3.69555664 5.67602539 C-3.6143457 4.85231445 -3.53313477 4.02860352 -3.44946289 3.17993164 C-3.01991887 0.37463798 -2.85139025 0.15175649 0 0 Z " fill="#464646" transform="translate(289.133056640625,564.886474609375)"/>
<path d="M0 0 C0.66 0 1.32 0 2 0 C2 93.06 2 186.12 2 282 C-88.75 282 -179.5 282 -273 282 C-273.33 281.34 -273.66 280.68 -274 280 C-241.29376376 279.97713039 -208.5875296 279.95950012 -175.88128719 279.94893467 C-172.02339718 279.94768391 -168.16550718 279.94638959 -164.30761719 279.94506836 C-163.53955381 279.94480605 -162.77149044 279.94454374 -161.98015241 279.94427348 C-149.53020441 279.9399176 -137.08026101 279.93203049 -124.63031574 279.9228472 C-111.86342627 279.9135084 -99.09653921 279.90794391 -86.32964647 279.90591151 C-78.44652686 279.90453675 -70.56342024 279.90018871 -62.68030463 279.89208353 C-56.64399585 279.88619188 -50.60769833 279.88554162 -44.57138634 279.88689232 C-42.08888735 279.88661598 -39.6063879 279.88461075 -37.12389183 279.88079453 C-33.748317 279.8758576 -30.3727989 279.87700174 -26.9972229 279.87974548 C-25.50600086 279.87537622 -25.50600086 279.87537622 -23.98465312 279.87091869 C-22.63583098 279.87390526 -22.63583098 279.87390526 -21.2597599 279.87695217 C-20.47981434 279.87657245 -19.69986879 279.87619273 -18.89628851 279.8758015 C-17 280 -17 280 -15 281 C-14.67 280.01 -14.34 279.02 -14 278 C-10.7 277.67 -7.4 277.34 -4 277 C-3.67 187.24 -3.34 97.48 -3 5 C-2.67 5 -2.34 5 -2 5 C-1.67 52.85 -1.34 100.7 -1 150 C-0.67 100.5 -0.34 51 0 0 Z " fill="#1173A4" transform="translate(417,482)"/>
<path d="M0 0 C95.04 0 190.08 0 288 0 C288.04033135 72.73534741 288.04033135 72.73534741 288.04882812 103.03710938 C288.05078614 109.97355146 288.05280666 116.90999351 288.05493164 123.84643555 C288.05519539 124.71586294 288.05545914 125.58529034 288.05573088 126.48106402 C288.06008585 140.53618335 288.06797277 154.59129861 288.0771528 168.64641552 C288.08648859 183.05972826 288.09205545 197.47303887 288.09408849 211.88635451 C288.09546388 220.78749514 288.09981529 229.68862428 288.10791647 238.58976138 C288.11318301 244.68508824 288.11480451 250.78040911 288.11350138 256.87573808 C288.11285785 260.3978083 288.11387712 263.91985837 288.11920547 267.44192505 C288.12492684 271.25136565 288.12300106 275.06077955 288.12025452 278.870224 C288.12462378 280.55841725 288.12462378 280.55841725 288.12908131 282.28071541 C288.12709026 283.29289117 288.12509921 284.30506694 288.12304783 285.3479147 C288.12342755 286.22848614 288.12380727 287.10905759 288.1241985 288.01631302 C288 290 288 290 287 291 C285.4674343 291.09689341 283.93039225 291.12371695 282.39476681 291.12304783 C280.89217844 291.1260344 280.89217844 291.1260344 279.35923475 291.12908131 C278.24544543 291.12616847 277.13165611 291.12325563 275.9841156 291.12025452 C274.81128165 291.12110894 273.6384477 291.12196337 272.43007332 291.12284368 C269.16006641 291.12421185 265.8900986 291.12106443 262.62009633 291.11606562 C259.09929026 291.11176439 255.57848617 291.11320731 252.05767822 291.1139679 C245.9527944 291.11449334 239.84792123 291.11134442 233.74304008 291.10573006 C224.91630668 291.09761781 216.08957844 291.09500012 207.26284171 291.09374207 C192.94353543 291.09155111 178.62423483 291.08488985 164.30493164 291.07543945 C150.39152047 291.06626646 136.47811085 291.05918507 122.56469727 291.05493164 C121.70769226 291.05466892 120.85068725 291.05440619 119.96771239 291.05413551 C115.66855459 291.05283051 111.36939677 291.05156679 107.07023895 291.05032361 C71.38015525 291.03994964 35.69007815 291.02233015 0 291 C0 290.67 0 290.34 0 290 C94.38 289.67 188.76 289.34 286 289 C286 194.62 286 100.24 286 3 C144.43 2.505 144.43 2.505 0 2 C0 1.34 0 0.68 0 0 Z " fill="#D8EDF5" transform="translate(452,476)"/>
<path d="M0 0 C0.33 0 0.66 0 1 0 C1 89.1 1 178.2 1 270 C90.1 270 179.2 270 271 270 C270.855625 228.770625 270.71125 187.54125 270.5625 145.0625 C270.51939697 132.04047119 270.47629395 119.01844238 270.43188477 105.60180664 C270.38863531 93.93687958 270.38863531 93.93687958 270.34410095 82.2719574 C270.32428758 77.07319131 270.30711095 71.87442441 270.29173279 66.67564392 C270.27210504 60.04364544 270.24748405 53.41167792 270.21969402 46.77970779 C270.21028468 44.34617251 270.20250069 41.91263028 270.19653046 39.47908413 C270.18822673 36.18976135 270.17395833 32.90051572 270.15821838 29.61122131 C270.1572412 28.66108375 270.15626402 27.71094618 270.15525723 26.73201656 C270.12059097 21.0811543 269.71618463 15.60659582 269 10 C265.37 13.3 261.74 16.6 258 20 C258 16.56655118 258.33204625 16.26243281 260.5546875 13.86328125 C261.08707031 13.28642578 261.61945313 12.70957031 262.16796875 12.11523438 C262.73128906 11.52033203 263.29460937 10.92542969 263.875 10.3125 C264.43058594 9.70599609 264.98617188 9.09949219 265.55859375 8.47460938 C266.99275882 6.93849763 268.49222135 5.46392359 270 4 C270.66 4 271.32 4 272 4 C272 92.44 272 180.88 272 272 C182.24 272 92.48 272 0 272 C0 182.24 0 92.48 0 0 Z " fill="#6DABC8" transform="translate(459,170)"/>
<path d="M0 0 C0 92.4 0 184.8 0 280 C-0.66 280 -1.32 280 -2 280 C-2.33 189.25 -2.66 98.5 -3 5 C-3.33 93.11 -3.66 181.22 -4 272 C-6.43255208 269.56744792 -6.25493341 268.9625774 -6.27567959 265.62926769 C-6.28622858 264.70526926 -6.29677756 263.78127083 -6.30764621 262.82927245 C-6.30912208 261.80740743 -6.31059794 260.78554242 -6.31211853 259.73271179 C-6.32143876 258.6523894 -6.33075899 257.572067 -6.34036165 256.45900756 C-6.36922775 252.81471266 -6.38369007 249.17050142 -6.39819336 245.52612305 C-6.41566495 242.92313098 -6.43394348 240.32014423 -6.45297241 237.71716309 C-6.50267721 230.62837093 -6.53744915 223.53955181 -6.5693748 216.45066047 C-6.58939885 212.02599552 -6.61266538 207.60135146 -6.6366291 203.17670631 C-6.70251718 190.93105526 -6.7652253 178.68540023 -6.81447506 166.43966961 C-6.81763024 165.65558068 -6.82078542 164.87149175 -6.82403621 164.06364255 C-6.83041912 162.47403007 -6.83679962 160.88441757 -6.84317773 159.29480507 C-6.84634754 158.50569567 -6.84951734 157.71658626 -6.8527832 156.90356445 C-6.85595437 156.11349409 -6.85912553 155.32342373 -6.86239279 154.50941185 C-6.91440128 141.705813 -6.98993384 128.90247187 -7.07584041 116.09905984 C-7.16368827 102.96038046 -7.2327918 89.82171426 -7.28275019 76.68283492 C-7.31122781 69.30323912 -7.34768398 61.92387571 -7.40458488 54.54443932 C-7.45797062 47.60469993 -7.48562637 40.66526998 -7.49572372 33.72533417 C-7.50354382 31.17471233 -7.51998569 28.62410057 -7.54556847 26.07359505 C-7.57910997 22.59808333 -7.58189137 19.12387723 -7.57676697 15.64823914 C-7.59385788 14.63306628 -7.6109488 13.61789343 -7.62855762 12.57195777 C-7.5893425 7.82953804 -7.53841793 5.70690009 -4.58895206 1.83448505 C-2 0 -2 0 0 0 Z " fill="#06699B" transform="translate(738,167)"/>
<path d="M0 0 C0.99 0.495 0.99 0.495 2 1 C0.02 3.31 -1.96 5.62 -4 8 C-4.33 7.01 -4.66 6.02 -5 5 C-87.17 5 -169.34 5 -254 5 C-254 4.67 -254 4.34 -254 4 C-252.4221875 3.7834375 -252.4221875 3.7834375 -250.8125 3.5625 C-247.25185302 3.09480452 -247.25185302 3.09480452 -244.80174828 2.47278023 C-240.98719516 1.82909453 -237.21554598 1.86238953 -233.35952759 1.87301636 C-232.49039777 1.87145637 -231.62126796 1.86989638 -230.72580087 1.86828911 C-227.81409088 1.86430118 -224.90243304 1.86746026 -221.99072266 1.87060547 C-219.90284698 1.86925043 -217.81497154 1.86746992 -215.72709656 1.86529541 C-210.05560995 1.86073272 -204.38414152 1.86250602 -198.71265459 1.8656745 C-192.77819297 1.86820476 -186.84373292 1.86585863 -180.90927124 1.86428833 C-170.9408134 1.86246831 -160.97236297 1.86486828 -151.00390625 1.86962891 C-139.48129991 1.87506822 -127.95871128 1.8733106 -116.43610537 1.8678025 C-106.54383112 1.86326307 -96.65156219 1.86262499 -86.75928724 1.86524117 C-80.85086043 1.86679975 -74.94244193 1.86700921 -69.03401566 1.86370468 C-63.4772668 1.86081405 -57.92054073 1.86282365 -52.36379433 1.86859894 C-50.32523321 1.86992025 -48.28667017 1.86954308 -46.24810982 1.86733627 C-43.46352729 1.86460003 -40.6790176 1.86803623 -37.8944397 1.87301636 C-37.0894682 1.87078564 -36.2844967 1.86855491 -35.45513213 1.86625659 C-30.87757251 1.88211319 -26.53247468 2.27352456 -22 3 C-20.242112 3.07330445 -18.48203806 3.10858409 -16.72265625 3.09765625 C-15.79775391 3.09443359 -14.87285156 3.09121094 -13.91992188 3.08789062 C-12.97697266 3.07951172 -12.03402344 3.07113281 -11.0625 3.0625 C-9.6074707 3.05573242 -9.6074707 3.05573242 -8.12304688 3.04882812 C-5.7486324 3.0371315 -3.37434979 3.02074086 -1 3 C-0.67 2.01 -0.34 1.02 0 0 Z " fill="#0B70A5" transform="translate(714,163)"/>
<path d="M0 0 C2.31 0.33 4.62 0.66 7 1 C5.02 1.99 5.02 1.99 3 3 C2.67 95.07 2.34 187.14 2 282 C7.28 282 12.56 282 18 282 C17.67 282.66 17.34 283.32 17 284 C11.39 284 5.78 284 0 284 C0 190.28 0 96.56 0 0 Z " fill="#07679C" transform="translate(453,480)"/>
<path d="M0 0 C0.66 0 1.32 0 2 0 C2.15043156 34.914199 2.29546202 69.82841585 2.4332476 104.74266702 C2.44951861 108.86449627 2.46583435 112.98632534 2.48217773 117.1081543 C2.48543066 117.92873719 2.48868358 118.74932008 2.49203508 119.59476911 C2.5448145 132.88199811 2.60121701 146.16920938 2.6589582 159.45641763 C2.71812413 173.09003694 2.77339717 186.72366802 2.82505554 200.35731786 C2.85705486 208.77017324 2.89209151 217.18300472 2.93101191 225.59583097 C2.95740921 231.36460362 2.9800256 237.13338338 2.99967117 242.90218294 C3.01111758 246.2305864 3.024789 249.55894116 3.04183006 252.88732338 C3.06005237 256.49760133 3.07196418 260.107847 3.08229065 263.71815491 C3.08909444 264.7677758 3.09589823 265.81739669 3.10290819 266.89882427 C3.11081383 272.04726507 2.89813179 276.92747272 2 282 C1.34 282 0.68 282 0 282 C0 188.94 0 95.88 0 0 Z " fill="#1373A6" transform="translate(454,165)"/>
<path d="M0 0 C82.17 0 164.34 0 249 0 C248.67 1.32 248.34 2.64 248 4 C247.67 3.34 247.34 2.68 247 2 C165.49 2 83.98 2 0 2 C0 1.34 0 0.68 0 0 Z " fill="#62A1BE" transform="translate(460,168)"/>
<path d="M0 0 C0 87.78 0 175.56 0 266 C-0.33 266 -0.66 266 -1 266 C-1.00423194 264.71470933 -1.00846388 263.42941866 -1.01282406 262.10517979 C-1.11354483 231.58071231 -1.21926274 201.05626668 -1.33111694 170.53183812 C-1.34488617 166.77309729 -1.35861332 163.01435631 -1.37231445 159.25561523 C-1.37640691 158.13318996 -1.37640691 158.13318996 -1.38058204 156.98808943 C-1.42463197 144.87914059 -1.46527427 132.77018259 -1.50465261 120.66121776 C-1.54514795 108.23215392 -1.58931599 95.80310702 -1.63687855 83.3740682 C-1.66610118 75.70748331 -1.69247448 68.04089956 -1.71517897 60.37429255 C-1.73290917 54.49108824 -1.75575443 48.60791069 -1.78049088 42.72473145 C-1.78982825 40.31451949 -1.79751532 37.90430049 -1.80341911 35.49407768 C-1.8117368 32.19975711 -1.82602898 28.90551353 -1.84178162 25.61122131 C-1.84275972 24.66080886 -1.84373783 23.71039641 -1.84474558 22.73118359 C-1.8794149 17.08060706 -2.28385166 11.60631165 -3 6 C-6.63 9.3 -10.26 12.6 -14 16 C-14 12.56655118 -13.66795375 12.26243281 -11.4453125 9.86328125 C-10.91292969 9.28642578 -10.38054688 8.70957031 -9.83203125 8.11523438 C-9.26871094 7.52033203 -8.70539062 6.92542969 -8.125 6.3125 C-7.56941406 5.70599609 -7.01382813 5.09949219 -6.44140625 4.47460938 C-2.26376195 0 -2.26376195 0 0 0 Z " fill="#92C1DB" transform="translate(731,174)"/>
<path d="M0 0 C0 92.4 0 184.8 0 280 C-0.33 280 -0.66 280 -1 280 C-1 188.59 -1 97.18 -1 3 C-2.65 3.66 -4.3 4.32 -6 5 C-4.87312259 1.61936778 -3.78825335 0 0 0 Z " fill="#0F6290" transform="translate(738,167)"/>
<path d="M0 0 C0.99 0.495 0.99 0.495 2 1 C0.02 3.31 -1.96 5.62 -4 8 C-4.33 7.01 -4.66 6.02 -5 5 C-87.17 5 -169.34 5 -254 5 C-254 4.67 -254 4.34 -254 4 C-170.51 3.67 -87.02 3.34 -1 3 C-0.67 2.01 -0.34 1.02 0 0 Z " fill="#1B75A1" transform="translate(714,163)"/>
<path d="M0 0 C2.89797974 -0.36076355 2.89797974 -0.36076355 6.65283203 -0.34057617 C7.33587402 -0.34101425 8.01891602 -0.34145233 8.72265625 -0.34190369 C10.98466388 -0.33981044 13.24593406 -0.31645543 15.5078125 -0.29296875 C17.07436722 -0.28737467 18.64092718 -0.28310369 20.20748901 -0.28010559 C24.33402962 -0.26864192 28.46025429 -0.23916195 32.58666992 -0.20599365 C36.79601772 -0.17532537 41.00541648 -0.16160721 45.21484375 -0.14648438 C53.47670761 -0.11429344 61.73831453 -0.06307904 70 0 C70 0.99 70 1.98 70 3 C46.24 3 22.48 3 -2 3 C-1.34 2.01 -0.68 1.02 0 0 Z " fill="#93BCCD" transform="translate(830,897)"/>
<path d="M0 0 C0.33 0 0.66 0 1 0 C1 47.52 1 95.04 1 144 C0.67 144 0.34 144 0 144 C-0.33 140.37 -0.66 136.74 -1 133 C-1.66 133.99 -2.32 134.98 -3 136 C-3.06058594 135.08476563 -3.12117188 134.16953125 -3.18359375 133.2265625 C-3.30927734 131.44378906 -3.30927734 131.44378906 -3.4375 129.625 C-3.51871094 128.44164062 -3.59992188 127.25828125 -3.68359375 126.0390625 C-3.81084936 123.08481099 -3.81084936 123.08481099 -5 121 C-3.68 121.33 -2.36 121.66 -1 122 C-0.67 81.74 -0.34 41.48 0 0 Z " fill="#F5FDFE" transform="translate(411,494)"/>
<path d="M0 0 C1.05469986 -0.00043808 1.05469986 -0.00043808 2.13070679 -0.00088501 C4.43573707 0.00049917 6.74043691 0.01601681 9.04541016 0.03173828 C10.65109073 0.03547167 12.2567736 0.0383171 13.86245728 0.04031372 C18.07434455 0.04792457 22.28609237 0.06755099 26.4979248 0.08972168 C30.80149449 0.11023518 35.10508685 0.11932718 39.40869141 0.12939453 C47.84234892 0.15079944 56.27589341 0.18490439 64.70947266 0.22705078 C64.70947266 0.88705078 64.70947266 1.54705078 64.70947266 2.22705078 C63.83694855 2.23513763 62.96442444 2.24322449 62.06546021 2.2515564 C53.85434583 2.32940365 45.64339762 2.41666407 37.43249702 2.51457787 C33.21089101 2.5645857 28.98931056 2.61091511 24.76757812 2.64892578 C20.69557726 2.68572223 16.62378807 2.73206632 12.55196762 2.78511429 C10.99623186 2.80368836 9.44045068 2.81878513 7.88464737 2.83039474 C5.71031126 2.84720611 3.53646313 2.87622738 1.36230469 2.90820312 C0.12320343 2.92152679 -1.11589783 2.93485046 -2.39254761 2.94857788 C-5.41666706 2.92903797 -5.41666706 2.92903797 -7.29052734 5.22705078 C-10.41552734 5.35205078 -10.41552734 5.35205078 -13.29052734 5.22705078 C-13.29052734 4.23705078 -13.29052734 3.24705078 -13.29052734 2.22705078 C-8.70283784 0.44954327 -4.90782926 -0.01722045 0 0 Z " fill="#D5E3ED" transform="translate(835.29052734375,894.77294921875)"/>
<path d="M0 0 C-1.0621875 0.37511719 -2.124375 0.75023437 -3.21875 1.13671875 C-12.31755052 4.29876729 -12.31755052 4.29876729 -20.75 8.875 C-24 11 -24 11 -28 11 C-28 11.66 -28 12.32 -28 13 C-28.63808594 13.12117187 -29.27617187 13.24234375 -29.93359375 13.3671875 C-30.75988281 13.53476562 -31.58617187 13.70234375 -32.4375 13.875 C-33.67306641 14.11863281 -33.67306641 14.11863281 -34.93359375 14.3671875 C-35.61550781 14.57601562 -36.29742187 14.78484375 -37 15 C-37.33 15.66 -37.66 16.32 -38 17 C-39.92652122 17.76396531 -41.857474 18.51928103 -43.8125 19.20703125 C-45.78533593 19.92218427 -47.71013762 20.76661342 -49.625 21.625 C-52.80938333 22.92234136 -55.60023359 23.58539434 -59 24 C-57 22 -57 22 -54 21 C-53.67 20.34 -53.34 19.68 -53 19 C-51.33333333 18.66666667 -49.66666667 18.33333333 -48 18 C-47.67 17.34 -47.34 16.68 -47 16 C-44.35139573 15.40644386 -41.70802678 15.25790731 -39 15 C-39 14.34 -39 13.68 -39 13 C-38.47792969 12.82984375 -37.95585937 12.6596875 -37.41796875 12.484375 C-34.94094392 11.66882217 -32.47006307 10.83640464 -30 10 C-29.06414062 9.68675781 -28.12828125 9.37351562 -27.1640625 9.05078125 C-23.08517317 7.63713879 -19.53368513 6.3594206 -15.9375 3.9375 C-11.27959747 0.86526642 -5.46975749 -1.8232525 0 0 Z " fill="#969696" transform="translate(374,645)"/>
<path d="M0 0 C0 0.66 0 1.32 0 2 C-3.08809695 3.76462683 -4.23312136 4 -8 4 C-8 4.66 -8 5.32 -8 6 C-9.24663331 6.50833591 -10.49749387 7.00631145 -11.75 7.5 C-12.44609375 7.7784375 -13.1421875 8.056875 -13.859375 8.34375 C-16 9 -16 9 -20 9 C-20 9.66 -20 10.32 -20 11 C-19.2575 10.95875 -18.515 10.9175 -17.75 10.875 C-14.86467775 11.00615101 -13.37466663 11.38861907 -11 13 C-10.67 13.99 -10.34 14.98 -10 16 C-14.60853797 15.27991594 -18.67237409 13.68704061 -23 12 C-22.859375 10.16015625 -22.859375 10.16015625 -22 8 C-19.453125 6.62109375 -19.453125 6.62109375 -16.25 5.4375 C-13.07221282 4.24387304 -10.19367768 3.11704262 -7.28515625 1.359375 C-4.63542045 -0.21687809 -3.03022101 -0.25973323 0 0 Z " fill="#8B8B8B" transform="translate(211,613)"/>
<path d="M0 0 C4.455 0.99 4.455 0.99 9 2 C9.33 2.66 9.66 3.32 10 4 C7.36 3.34 4.72 2.68 2 2 C2.33 8.27 2.66 14.54 3 21 C3.66 20.67 4.32 20.34 5 20 C5.061875 20.8971875 5.061875 20.8971875 5.125 21.8125 C5.87739901 24.35100832 5.87739901 24.35100832 9.0625 25.75 C10.031875 26.1625 11.00125 26.575 12 27 C8 28 8 28 0 25 C0 16.75 0 8.5 0 0 Z " fill="#858585" transform="translate(314,578)"/>
<path d="M0 0 C1.32 0.33 2.64 0.66 4 1 C-1.1496901 4.26076688 -6.12936488 7.30582436 -11.9140625 9.27734375 C-15.29921883 10.4501039 -18.58836907 11.86237545 -21.8984375 13.23046875 C-24 14 -24 14 -26 14 C-26 21.26 -26 28.52 -26 36 C-26.33 36 -26.66 36 -27 36 C-27 28.41 -27 20.82 -27 13 C-25.35 12.67 -23.7 12.34 -22 12 C-21.67 11.01 -21.34 10.02 -21 9 C-18.375 7.9375 -18.375 7.9375 -15 7 C-13.783125 6.62875 -12.56625 6.2575 -11.3125 5.875 C-8 5 -8 5 -5 5 C-4.67 4.01 -4.34 3.02 -4 2 C-2.68 2 -1.36 2 0 2 C0 1.34 0 0.68 0 0 Z " fill="#B6B6B6" transform="translate(341,632)"/>
<path d="M0 0 C8.25 0 16.5 0 25 0 C25 7 25 7 23 9.4375 C22.01 10.2109375 22.01 10.2109375 21 11 C21.33 9.35 21.66 7.7 22 6 C22.66 6 23.32 6 24 6 C24 4.68 24 3.36 24 2 C13.11 2.495 13.11 2.495 2 3 C1.34 5.97 0.68 8.94 0 12 C-0.66 12 -1.32 12 -2 12 C-2.33 13.98 -2.66 15.96 -3 18 C-4.06434103 14.80697692 -3.96752058 13.19185893 -2.625 10.125 C-1.07905116 6.55631436 -0.68477389 4.10864332 0 0 Z " fill="#BBBBBB" transform="translate(285,563)"/>
<path d="M0 0 C0.33 0 0.66 0 1 0 C1 1.65 1 3.3 1 5 C7.6 5.33 14.2 5.66 21 6 C21.33 4.68 21.66 3.36 22 2 C23 4 23 4 22 8 C14.08 8 6.16 8 -2 8 C-2 6.68 -2 5.36 -2 4 C-1.34 4 -0.68 4 0 4 C0 2.68 0 1.36 0 0 Z " fill="#808080" transform="translate(248,672)"/>
<path d="M0 0 C0.33 0 0.66 0 1 0 C1 4.62 1 9.24 1 14 C0.01 14.33 -0.98 14.66 -2 15 C-2 15.66 -2 16.32 -2 17 C-3.89545392 17.48066535 -5.79138039 17.95946743 -7.6875 18.4375 C-8.74324219 18.70433594 -9.79898437 18.97117187 -10.88671875 19.24609375 C-13.5828317 19.89897932 -16.2757576 20.47941193 -19 21 C-19 21.66 -19 22.32 -19 23 C-20.32 22.67 -21.64 22.34 -23 22 C-19 20 -19 20 -15 18 C-14.33484375 17.62617187 -13.6696875 17.25234375 -12.984375 16.8671875 C-11 16 -11 16 -7 16 C-7 15.34 -7 14.68 -7 14 C-3.535 13.505 -3.535 13.505 0 13 C0 8.71 0 4.42 0 0 Z " fill="#848485" transform="translate(407,617)"/>
<path d="M0 0 C4.09501225 0.64175565 8.10088724 1.44433662 12.125 2.4375 C13.13820313 2.68371094 14.15140625 2.92992187 15.1953125 3.18359375 C17.67174157 3.90444845 19.75052612 4.7568697 22 6 C22 6.99 22 7.98 22 9 C22.99 9.33 23.98 9.66 25 10 C18.93667219 9.66314845 14.75466892 8.12719981 9.41015625 5.27734375 C6.34245281 3.65151065 3.20715062 2.32469265 0 1 C0 0.67 0 0.34 0 0 Z " fill="#D1D1D1" transform="translate(379,605)"/>
<path d="M0 0 C6.62177926 0.30656385 11.22125154 1.74288723 17 5 C17 5.66 17 6.32 17 7 C17.680625 7.103125 18.36125 7.20625 19.0625 7.3125 C22.62915989 8.14725019 25.66222194 9.49472754 29 11 C26.52455813 11.8852947 25.28988738 12.09093521 22.74609375 11.29296875 C21.98425781 10.92816406 21.22242188 10.56335938 20.4375 10.1875 C19.67308594 9.83042969 18.90867188 9.47335937 18.12109375 9.10546875 C16 8 16 8 13 6 C11.0103005 5.60986284 9.00980131 5.26797351 7 5 C7 4.34 7 3.68 7 3 C5.824375 2.814375 5.824375 2.814375 4.625 2.625 C2 2 2 2 0 0 Z " fill="#838383" transform="translate(191,648)"/>
<path d="M0 0 C0 8.58 0 17.16 0 26 C-3.96 26.495 -3.96 26.495 -8 27 C-6.75 25.5 -6.75 25.5 -5 24 C-3.68 24 -2.36 24 -1 24 C-1 16.74 -1 9.48 -1 2 C-2.65 2.66 -4.3 3.32 -6 4 C-8.3125 3.625 -8.3125 3.625 -10 3 C-6.84916414 -0.15083586 -4.41812253 0 0 0 Z " fill="#B4B4B4" transform="translate(242,577)"/>
<path d="M0 0 C4.48525648 0.656379 8.66914029 1.70074209 13 3 C13 3.66 13 4.32 13 5 C13.66 5.0825 14.32 5.165 15 5.25 C18.99039163 6.24759791 22.38549643 8.07166683 26 10 C22.91503337 11.54248331 20.8520278 10.2507412 17.625 9.25 C16.48289062 8.90453125 15.34078125 8.5590625 14.1640625 8.203125 C11.23635543 7.08987342 9.40821265 5.93793936 7 4 C5.11476331 3.03904512 5.11476331 3.03904512 3.25 2.3125 C2.1775 1.879375 1.105 1.44625 0 1 C0 0.67 0 0.34 0 0 Z " fill="#A2A2A2" transform="translate(332,585)"/>
<path d="M0 0 C-1.32 0.33 -2.64 0.66 -4 1 C-4 1.66 -4 2.32 -4 3 C-5.32 3 -6.64 3 -8 3 C-8 3.66 -8 4.32 -8 5 C-10.64 5.33 -13.28 5.66 -16 6 C-16 6.66 -16 7.32 -16 8 C-17.98 8.33 -19.96 8.66 -22 9 C-17.375 5 -17.375 5 -14 5 C-14 4.01 -14 3.02 -14 2 C-9.77220439 0.07827472 -4.39544329 -2.19772165 0 0 Z " fill="#BFBFBF" transform="translate(194,598)"/>
<path d="M0 0 C2.97 0.495 2.97 0.495 6 1 C6 2.32 6 3.64 6 5 C4.35 5 2.7 5 1 5 C1 5.66 1 6.32 1 7 C-0.32 7 -1.64 7 -3 7 C-3 7.66 -3 8.32 -3 9 C-6.4019487 11.09350689 -9.05272412 11.17942163 -13 11 C-11.26491667 7.52983334 -7.48863053 6.39915041 -4 5 C-1.63152176 4.45445164 0.56872068 4.20260661 3 4 C2.01 2.68 1.02 1.36 0 0 Z " fill="#969696" transform="translate(362,621)"/>
<path d="M0 0 C1 2 1 2 0.3125 4.5 C-1 7 -1 7 -3.0625 8 C-3.701875 8.33 -4.34125 8.66 -5 9 C-5.81171228 11.55519921 -5.81171228 11.55519921 -6 14 C-6.99 14.33 -7.98 14.66 -9 15 C-9.35412344 16.32796291 -9.68521554 17.66216607 -10 19 C-11.5625 20.75 -11.5625 20.75 -13 22 C-13 14.27788635 -4.64900628 5.94323514 0 0 Z " fill="#7B7B7B" transform="translate(640,255)"/>
<path d="M0 0 C0 4.29 0 8.58 0 13 C-0.33 13 -0.66 13 -1 13 C-1.33 10.03 -1.66 7.06 -2 4 C-5.63 7.3 -9.26 10.6 -13 14 C-13 9.88772922 -10.84112779 8.17280811 -8.1875 5.3125 C-7.73568359 4.80138672 -7.28386719 4.29027344 -6.81835938 3.76367188 C-3.37628296 0 -3.37628296 0 0 0 Z " fill="#C5C9CC" transform="translate(730,176)"/>
<path d="M0 0 C4.24875288 0.62425455 8.22422463 1.56145698 12.3125 2.875 C13.88451172 3.36613281 13.88451172 3.36613281 15.48828125 3.8671875 C16.31714844 4.24101563 17.14601562 4.61484375 18 5 C18.33 5.99 18.66 6.98 19 8 C19.99 8.33 20.98 8.66 22 9 C17.47909744 8.1990527 13.13838269 6.95098614 8.75 5.625 C8.0178125 5.41617188 7.285625 5.20734375 6.53125 4.9921875 C4.65612766 4.4227059 2.82266819 3.71991232 1 3 C0.67 2.01 0.34 1.02 0 0 Z " fill="#ABABAB" transform="translate(201,629)"/>
<path d="M0 0 C0.66 0.99 1.32 1.98 2 3 C0.71034824 4.37562854 -0.62689293 5.70766393 -2 7 C-2.66 7 -3.32 7 -4 7 C-4.061875 7.7425 -4.12375 8.485 -4.1875 9.25 C-5.24185138 12.8185739 -6.99909773 13.92245228 -10 16 C-10 11.94860621 -7.95391463 9.93049487 -5.5625 6.875 C-5.14162109 6.32457031 -4.72074219 5.77414063 -4.28710938 5.20703125 C-1.24503968 1.24503968 -1.24503968 1.24503968 0 0 Z " fill="#7B7B7B" transform="translate(664,222)"/>
<path d="M0 0 C0.625 1.8125 0.625 1.8125 1 4 C0.01 5.485 0.01 5.485 -1 7 C-1.66 7 -2.32 7 -3 7 C-3 7.99 -3 8.98 -3 10 C-3.66 10 -4.32 10 -5 10 C-5.0825 10.9075 -5.165 11.815 -5.25 12.75 C-6.09248732 16.40077839 -7.17881618 17.63384583 -10 20 C-10 12.97674744 -3.97331668 5.65433528 0 0 Z " fill="#8F8F8F" transform="translate(605,309)"/>
<path d="M0 0 C6.93 0 13.86 0 21 0 C20.67 0.99 20.34 1.98 20 3 C16.625 3.625 16.625 3.625 13 4 C12.34 3.34 11.68 2.68 11 2 C8.33757179 1.53709779 8.33757179 1.53709779 5.375 1.375 C3.87066406 1.26285156 3.87066406 1.26285156 2.3359375 1.1484375 C1.56507813 1.09945312 0.79421875 1.05046875 0 1 C0 0.67 0 0.34 0 0 Z " fill="#0C6B9D" transform="translate(693,163)"/>
<path d="M0 0 C0.33 0 0.66 0 1 0 C1.1875 2.3125 1.1875 2.3125 1 5 C-0.3125 6.5 -0.3125 6.5 -2 8 C-2.7734375 9.3303125 -2.7734375 9.3303125 -3.5625 10.6875 C-4.036875 11.450625 -4.51125 12.21375 -5 13 C-5.66 13 -6.32 13 -7 13 C-7 13.99 -7 14.98 -7 16 C-7.66 16 -8.32 16 -9 16 C-7.56786488 12.06342758 -5.69667846 8.71068644 -3.4375 5.1875 C-2.50744141 3.72376953 -2.50744141 3.72376953 -1.55859375 2.23046875 C-1.04425781 1.49441406 -0.52992188 0.75835937 0 0 Z " fill="#828282" transform="translate(618,288)"/>
<path d="M0 0 C0.33 0.99 0.66 1.98 1 3 C-0.24034412 4.32162881 -1.49268626 5.63200453 -2.75 6.9375 C-3.44609375 7.66839844 -4.1421875 8.39929688 -4.859375 9.15234375 C-7.00599725 11.00517646 -8.23532932 11.60771565 -11 12 C-8.01665146 6.98797445 -4.56048012 3.61251516 0 0 Z " fill="#717172" transform="translate(708,171)"/>
<path d="M0 0 C2.475 0.495 2.475 0.495 5 1 C5.08153933 2.58246707 5.13943557 4.16616273 5.1875 5.75 C5.22230469 6.63171875 5.25710938 7.5134375 5.29296875 8.421875 C4.94923684 11.44671583 3.99772541 12.75583602 2 15 C1.90912109 13.62714844 1.90912109 13.62714844 1.81640625 12.2265625 C1.69072266 10.44378906 1.69072266 10.44378906 1.5625 8.625 C1.48128906 7.44164062 1.40007812 6.25828125 1.31640625 5.0390625 C1.18915064 2.08481099 1.18915064 2.08481099 0 0 Z " fill="#DFDEDE" transform="translate(406,615)"/>
<path d="M0 0 C9.24 0 18.48 0 28 0 C28 0.33 28 0.66 28 1 C15.625 1.495 15.625 1.495 3 2 C3 2.99 3 3.98 3 5 C2.01 4.67 1.02 4.34 0 4 C0 2.68 0 1.36 0 0 Z " fill="#C8C8C8" transform="translate(519,300)"/>
<path d="M0 0 C0.66 0.33 1.32 0.66 2 1 C0.02 3.31 -1.96 5.62 -4 8 C-4.33 7.01 -4.66 6.02 -5 5 C-9.29 5 -13.58 5 -18 5 C-18 4.67 -18 4.34 -18 4 C-9.585 3.505 -9.585 3.505 -1 3 C-0.67 2.01 -0.34 1.02 0 0 Z " fill="#256788" transform="translate(714,163)"/>
<path d="M0 0 C-1.40372802 1.20276695 -2.82352097 2.38680519 -4.25 3.5625 C-5.43335938 4.55443359 -5.43335938 4.55443359 -6.640625 5.56640625 C-9 7 -9 7 -11.296875 6.71484375 C-11.85890625 6.47894531 -12.4209375 6.24304688 -13 6 C-11.68 5.34 -10.36 4.68 -9 4 C-9 3.34 -9 2.68 -9 2 C-5.59159007 -0.55630744 -4.03546861 -1.28479663 0 0 Z " fill="#979797" transform="translate(749,138)"/>
<path d="M0 0 C1.45047396 2.90094791 0.45356803 4.55972596 -0.4375 7.625 C-0.72496094 8.62789062 -1.01242187 9.63078125 -1.30859375 10.6640625 C-1.53675781 11.43492187 -1.76492188 12.20578125 -2 13 C-2.66 13 -3.32 13 -4 13 C-4.33 13.99 -4.66 14.98 -5 16 C-4.88648483 14.18674449 -4.75887039 12.37436643 -4.625 10.5625 C-4.55539062 9.55316406 -4.48578125 8.54382813 -4.4140625 7.50390625 C-4.27742188 6.67761719 -4.14078125 5.85132813 -4 5 C-3.34 4.67 -2.68 4.34 -2 4 C-0.86649466 1.98330173 -0.86649466 1.98330173 0 0 Z " fill="#8E8E8E" transform="translate(283,638)"/>
<path d="M0 0 C6.15222436 0.43173504 9.81917949 1.65405342 15 5 C12.51053693 5.89234179 11.27333365 6.08442558 8.7109375 5.29296875 C7.94007813 4.92816406 7.16921875 4.56335938 6.375 4.1875 C5.59898437 3.83042969 4.82296875 3.47335937 4.0234375 3.10546875 C2 2 2 2 0 0 Z " fill="#8B8B8B" transform="translate(341,612)"/>
<path d="M0 0 C0 3.84759538 -0.99356258 5.72281888 -3 9 C-6.1875 11.375 -6.1875 11.375 -9 13 C-7.47987323 7.59510481 -3.72614782 4.01507372 0 0 Z " fill="#878787" transform="translate(678,204)"/>
<path d="M0 0 C0.33 0.99 0.66 1.98 1 3 C3.01508358 3.73323796 3.01508358 3.73323796 5 4 C4.67 4.99 4.34 5.98 4 7 C4 6.34 4 5.68 4 5 C2.35 5.33 0.7 5.66 -1 6 C-1 5.01 -1 4.02 -1 3 C-1.7425 2.855625 -2.485 2.71125 -3.25 2.5625 C-5.52027739 2.09812508 -7.75759479 1.58136431 -10 1 C-6.52674819 -0.1577506 -3.63932552 -0.06866652 0 0 Z " fill="#727272" transform="translate(759,135)"/>
<path d="M0 0 C-0.66 0 -1.32 0 -2 0 C-2 0.66 -2 1.32 -2 2 C-3.24420647 2.5345256 -4.49570936 3.05208611 -5.75 3.5625 C-6.44609375 3.85253906 -7.1421875 4.14257812 -7.859375 4.44140625 C-10.30012784 5.07831803 -11.6403655 4.80248831 -14 4 C-12.42466914 3.13116294 -10.83935491 2.28040932 -9.25 1.4375 C-8.36828125 0.96183594 -7.4865625 0.48617187 -6.578125 -0.00390625 C-3.79298812 -1.07998186 -2.73019786 -1.06528748 0 0 Z " fill="#808080" transform="translate(210,592)"/>
<path d="M0 0 C0.33 1.32 0.66 2.64 1 4 C0.34 4 -0.32 4 -1 4 C-1.03738281 4.68707031 -1.07476562 5.37414062 -1.11328125 6.08203125 C-1.17902344 6.98308594 -1.24476563 7.88414062 -1.3125 8.8125 C-1.37050781 9.70582031 -1.42851562 10.59914063 -1.48828125 11.51953125 C-2.06313581 14.30604 -2.8206856 15.24135754 -5 17 C-4.53444296 10.59859065 -2.85288164 5.73230171 0 0 Z " fill="#A3A3A3" transform="translate(289,621)"/>
<path d="M0 0 C-4.73850419 4.14619116 -10.85535142 6.03989866 -17 7 C-17 6.34 -17 5.68 -17 5 C-14.36 4.67 -11.72 4.34 -9 4 C-9 3.34 -9 2.68 -9 2 C-5.86501708 0.14223235 -3.62528568 -0.20140476 0 0 Z " fill="#6D6D6D" transform="translate(344,656)"/>
<path d="M0 0 C-0.66 0 -1.32 0 -2 0 C-2 0.66 -2 1.32 -2 2 C-11.41002278 5.44419134 -11.41002278 5.44419134 -16 5 C-15.443125 4.731875 -14.88625 4.46375 -14.3125 4.1875 C-11.93031489 3.00517661 -11.93031489 3.00517661 -9.5 1.4375 C-5.80548477 -0.68684626 -4.09335607 -1.36445202 0 0 Z " fill="#BABABA" transform="translate(232,582)"/>
<path d="M0 0 C0.33 0.66 0.66 1.32 1 2 C1.7425 1.95875 2.485 1.9175 3.25 1.875 C6.13532225 2.00615101 7.62533337 2.38861907 10 4 C10.33 4.99 10.66 5.98 11 7 C6.87248551 6.39301257 3.6678852 4.96189209 0 3 C0 2.01 0 1.02 0 0 Z " fill="#BCBCBC" transform="translate(190,622)"/>
<path d="M0 0 C0 0.66 0 1.32 0 2 C-2.64 2.33 -5.28 2.66 -8 3 C-8 3.66 -8 4.32 -8 5 C-9.98 5.33 -11.96 5.66 -14 6 C-9.38373114 2.04319812 -6.15374666 0 0 0 Z " fill="#868686" transform="translate(186,601)"/>
<path d="M0 0 C1.58624235 0.42683239 3.1689098 0.86696158 4.75 1.3125 C6.07257813 1.67794922 6.07257813 1.67794922 7.421875 2.05078125 C10.05772505 3.02125331 11.85407326 4.21005644 14 6 C9.14580734 5.40802528 5.35759324 4.13607512 1 2 C0.67 1.34 0.34 0.68 0 0 Z " fill="#A3A3A3" transform="translate(206,654)"/>
<path d="M0 0 C0.5625 1.9375 0.5625 1.9375 1 4 C0.67 4.33 0.34 4.66 0 5 C-0.36760731 7.32817964 -0.70241581 9.6618385 -1 12 C-1.99 12.33 -2.98 12.66 -4 13 C-3.27991594 8.39146203 -1.68704061 4.32762591 0 0 Z " fill="#757575" transform="translate(268,616)"/>
<path d="M0 0 C3.12290635 0.48578543 5.99580359 0.9986012 9 2 C9 2.66 9 3.32 9 4 C10.32 4.33 11.64 4.66 13 5 C12.01 5.495 12.01 5.495 11 6 C8.90625 5.29296875 8.90625 5.29296875 6.5 4.1875 C5.7059375 3.83042969 4.911875 3.47335937 4.09375 3.10546875 C2 2 2 2 0 0 Z " fill="#888888" transform="translate(379,605)"/>
<path d="M0 0 C2.64 0.33 5.28 0.66 8 1 C8.33 1.99 8.66 2.98 9 4 C9.99 4.33 10.98 4.66 12 5 C7.61110675 4.33501617 4.0188515 2.81242323 0 1 C0 0.67 0 0.34 0 0 Z " fill="#9C9C9C" transform="translate(358,596)"/>
<path d="M0 0 C1 2 1 2 0.3125 4.875 C-1.03712351 8.08838932 -2.39272995 9.74036595 -5 12 C-5 8.55639368 -4.20408468 7.25204608 -2.5 4.3125 C-2.0359375 3.50425781 -1.571875 2.69601562 -1.09375 1.86328125 C-0.7328125 1.24839844 -0.371875 0.63351562 0 0 Z " fill="#B0B0B0" transform="translate(636,304)"/>
<path d="M0 0 C0 3.29223784 -0.50518132 5.08510357 -2 8 C-4.125 9.3125 -4.125 9.3125 -6 10 C-4.6302836 6.00499382 -2.74277578 3.19990508 0 0 Z " fill="#8B8B8B" transform="translate(647,245)"/>
<path d="M0 0 C4.37113496 0.50827151 7.38995662 1.45173408 11 4 C11 4.33 11 4.66 11 5 C9.35 5 7.7 5 6 5 C5.67 4.01 5.34 3.02 5 2 C3.35 1.67 1.7 1.34 0 1 C0 0.67 0 0.34 0 0 Z " fill="#959595" transform="translate(223,638)"/>
<path d="M0 0 C0 0.66 0 1.32 0 2 C-6.28571429 4.42857143 -6.28571429 4.42857143 -10 3 C-6.84916414 -0.15083586 -4.41812253 0 0 0 Z " fill="#C8C8C8" transform="translate(242,577)"/>
<path d="M0 0 C1.35439668 2.70879335 1.06501451 5.00933268 1 8 C0.01 8.33 -0.98 8.66 -2 9 C-2.33 9.66 -2.66 10.32 -3 11 C-3.39253254 6.55129785 -2.15305957 3.85756507 0 0 Z " fill="#959595" transform="translate(263,629)"/>
<path d="M0 0 C0.33 0.66 0.66 1.32 1 2 C1.66 2 2.32 2 3 2 C3 3.32 3 4.64 3 6 C3.66 6 4.32 6 5 6 C5.33 7.98 5.66 9.96 6 12 C5.34 11.67 4.68 11.34 4 11 C4 9.68 4 8.36 4 7 C3.34 7 2.68 7 2 7 C0 4 0 4 0 0 Z " fill="#949494" transform="translate(563,349)"/>
<path d="M0 0 C0.33 0.66 0.66 1.32 1 2 C0.0625 4.625 0.0625 4.625 -1 7 C-1.66 7 -2.32 7 -3 7 C-3 7.66 -3 8.32 -3 9 C-3.66 9 -4.32 9 -5 9 C-3.7508258 5.54074837 -2.32472205 2.85306797 0 0 Z " fill="#B2B2B2" transform="translate(674,245)"/>
<path d="M0 0 C2.64 0.33 5.28 0.66 8 1 C8 1.66 8 2.32 8 3 C8.99 3.33 9.98 3.66 11 4 C3.49230769 3.38461538 3.49230769 3.38461538 1 1.4375 C0.67 0.963125 0.34 0.48875 0 0 Z " fill="#8D8D8D" transform="translate(393,611)"/>
<path d="M0 0 C0.66 0 1.32 0 2 0 C1.6875 1.9375 1.6875 1.9375 1 4 C0.01 4.33 -0.98 4.66 -2 5 C-2 5.99 -2 6.98 -2 8 C-2.66 8 -3.32 8 -4 8 C-2.87548273 5.0280615 -1.77706209 2.66559313 0 0 Z " fill="#888888" transform="translate(613,296)"/>
<path d="M0 0 C1.36125 0.12375 1.36125 0.12375 2.75 0.25 C2.75 0.91 2.75 1.57 2.75 2.25 C-0.55 2.91 -3.85 3.57 -7.25 4.25 C-4.83923194 1.28290085 -3.90322061 0.30024774 0 0 Z " fill="#CFCFCF" transform="translate(754.25,132.75)"/>
<path d="M0 0 C-2.55068845 2.35448165 -3.71017358 2.98327924 -7.25 3.1875 C-8.1575 3.125625 -9.065 3.06375 -10 3 C-8.0130571 -0.97388579 -3.91761109 -0.08705802 0 0 Z " fill="#7C7C7C" transform="translate(359,629)"/>
<path d="M0 0 C-3.28463659 2.18975773 -6.20696275 2.99806563 -10 4 C-9.67 3.01 -9.34 2.02 -9 1 C-5.8035914 -0.06546953 -3.34252724 -0.07427838 0 0 Z " fill="#BFBFBF" transform="translate(203,618)"/>
<path d="M0 0 C0.33 0.66 0.66 1.32 1 2 C-0.25 5.0625 -0.25 5.0625 -2 8 C-2.99 8.33 -3.98 8.66 -5 9 C-3.7508258 5.54074837 -2.32472205 2.85306797 0 0 Z " fill="#969696" transform="translate(631,268)"/>
<path d="M0 0 C2.97 0.495 2.97 0.495 6 1 C6.33 1.99 6.66 2.98 7 4 C4.69 3.34 2.38 2.68 0 2 C0 1.34 0 0.68 0 0 Z " fill="#848484" transform="translate(201,629)"/>
<path d="M0 0 C-0.66 1.65 -1.32 3.3 -2 5 C-2.66 5 -3.32 5 -4 5 C-4.33 3.68 -4.66 2.36 -5 1 C-3 0 -3 0 0 0 Z " fill="#646464" transform="translate(587,393)"/>
<path d="M0 0 C0.75 1.75 0.75 1.75 1 4 C-0.9375 6.25 -0.9375 6.25 -3 8 C-3.33 7.34 -3.66 6.68 -4 6 C-2.68 4.02 -1.36 2.04 0 0 Z " fill="#8A8A8A" transform="translate(625,277)"/>
</svg>
